<svg width="167" height="36" viewBox="0 0 167 36" fill="none" xmlns="http://www.w3.org/2000/svg">
<path d="M17.7191 3.8C16.4711 3.8 15.2551 4.072 14.0711 4.616C12.8871 5.128 11.8311 5.96 10.9031 7.112C10.0071 8.264 9.27106 9.752 8.69506 11.576C8.15106 13.4 7.87906 15.608 7.87906 18.2C7.87906 20.792 8.15106 23 8.69506 24.824C9.27106 26.648 10.0071 28.136 10.9031 29.288C11.8311 30.44 12.8871 31.288 14.0711 31.832C15.2551 32.344 16.4711 32.6 17.7191 32.6C18.9671 32.6 20.1831 32.344 21.3671 31.832C22.5511 31.288 23.5911 30.44 24.4871 29.288C25.4151 28.136 26.1511 26.648 26.6951 24.824C27.2711 23 27.5591 20.792 27.5591 18.2C27.5591 15.608 27.2711 13.4 26.6951 11.576C26.1511 9.752 25.4151 8.264 24.4871 7.112C23.5911 5.96 22.5511 5.128 21.3671 4.616C20.1831 4.072 18.9671 3.8 17.7191 3.8ZM17.7191 0.439999C20.2471 0.439999 22.5671 0.807999 24.6791 1.544C26.7911 2.248 28.6151 3.336 30.1511 4.808C31.6871 6.28 32.8711 8.136 33.7031 10.376C34.5671 12.584 34.9991 15.192 34.9991 18.2C34.9991 21.208 34.5671 23.832 33.7031 26.072C32.8711 28.28 31.6871 30.12 30.1511 31.592C28.6151 33.064 26.7911 34.168 24.6791 34.904C22.5671 35.608 20.2471 35.96 17.7191 35.96C15.1911 35.96 12.8711 35.608 10.7591 34.904C8.64706 34.168 6.82306 33.064 5.28706 31.592C3.75106 30.12 2.55106 28.28 1.68706 26.072C0.855063 23.832 0.439063 21.208 0.439063 18.2C0.439063 15.192 0.855063 12.584 1.68706 10.376C2.55106 8.136 3.75106 6.28 5.28706 4.808C6.82306 3.336 8.64706 2.248 10.7591 1.544C12.8711 0.807999 15.1911 0.439999 17.7191 0.439999ZM63.5741 30.2H64.0541L76.5341 1.4H86.8541V35H79.8941V8.12H79.4141L67.8941 35H59.7341L48.2141 8.12H47.7341V35H40.7741V1.4H51.0941L63.5741 30.2ZM102.435 23.24H117.315L110.115 5.48H109.635L102.435 23.24ZM115.395 1.4L129.075 35H122.163L118.995 26.84H100.755L97.5873 35H90.6753L104.355 1.4H115.395ZM150.21 1.4C152.61 1.4 154.754 1.672 156.642 2.216C158.562 2.728 160.178 3.496 161.49 4.52C162.802 5.512 163.81 6.744 164.514 8.216C165.218 9.656 165.57 11.304 165.57 13.16C165.57 15.72 164.93 17.88 163.65 19.64C162.37 21.4 160.53 22.744 158.13 23.672L166.05 35H158.13L151.074 24.92H150.21H139.89V35H132.93V1.4H150.21ZM139.89 5V21.32H150.21C152.738 21.32 154.69 20.664 156.066 19.352C157.442 18.008 158.13 15.944 158.13 13.16C158.13 10.376 157.442 8.328 156.066 7.016C154.69 5.672 152.738 5 150.21 5H139.89Z" fill="#1F1F1F"/>
</svg>
