<svg width="92" height="94" viewBox="0 0 92 94" fill="none" xmlns="http://www.w3.org/2000/svg">
<path d="M20.1019 3.8C18.8539 3.8 17.6379 4.072 16.4539 4.616C15.2699 5.128 14.2139 5.96 13.2859 7.112C12.3899 8.264 11.6539 9.752 11.0779 11.576C10.5339 13.4 10.2619 15.608 10.2619 18.2C10.2619 20.792 10.5339 23 11.0779 24.824C11.6539 26.648 12.3899 28.136 13.2859 29.288C14.2139 30.44 15.2699 31.288 16.4539 31.832C17.6379 32.344 18.8539 32.6 20.1019 32.6C21.3499 32.6 22.5659 32.344 23.7499 31.832C24.9339 31.288 25.9739 30.44 26.8699 29.288C27.7979 28.136 28.5339 26.648 29.0779 24.824C29.6539 23 29.9419 20.792 29.9419 18.2C29.9419 15.608 29.6539 13.4 29.0779 11.576C28.5339 9.752 27.7979 8.264 26.8699 7.112C25.9739 5.96 24.9339 5.128 23.7499 4.616C22.5659 4.072 21.3499 3.8 20.1019 3.8ZM20.1019 0.439999C22.6299 0.439999 24.9499 0.807999 27.0619 1.544C29.1739 2.248 30.9979 3.336 32.5339 4.808C34.0699 6.28 35.2539 8.136 36.0859 10.376C36.9499 12.584 37.3819 15.192 37.3819 18.2C37.3819 21.208 36.9499 23.832 36.0859 26.072C35.2539 28.28 34.0699 30.12 32.5339 31.592C30.9979 33.064 29.1739 34.168 27.0619 34.904C24.9499 35.608 22.6299 35.96 20.1019 35.96C17.5739 35.96 15.2539 35.608 13.1419 34.904C11.0299 34.168 9.20588 33.064 7.66988 31.592C6.13388 30.12 4.93388 28.28 4.06988 26.072C3.23788 23.832 2.82188 21.208 2.82188 18.2C2.82188 15.192 3.23788 12.584 4.06988 10.376C4.93388 8.136 6.13388 6.28 7.66988 4.808C9.20588 3.336 11.0299 2.248 13.1419 1.544C15.2539 0.807999 17.5739 0.439999 20.1019 0.439999ZM65.9569 30.2H66.4369L78.9169 1.4H89.2369V35H82.2769V8.12H81.7969L70.2769 35H62.1169L50.5969 8.12H50.1169V35H43.1569V1.4H53.4769L65.9569 30.2ZM12.1772 82.24H27.0572L19.8572 64.48H19.3772L12.1772 82.24ZM25.1372 60.4L38.8172 94H31.9052L28.7372 85.84H10.4972L7.32919 94H0.417187L14.0972 60.4H25.1372ZM75.3122 60.4C77.7122 60.4 79.8562 60.672 81.7442 61.216C83.6642 61.728 85.2802 62.496 86.5922 63.52C87.9042 64.512 88.9122 65.744 89.6162 67.216C90.3202 68.656 90.6722 70.304 90.6722 72.16C90.6722 74.72 90.0322 76.88 88.7522 78.64C87.4722 80.4 85.6322 81.744 83.2322 82.672L91.1522 94H83.2322L76.1762 83.92H75.3122H64.9922V94H58.0322V60.4H75.3122ZM64.9922 64V80.32H75.3122C77.8402 80.32 79.7922 79.664 81.1682 78.352C82.5442 77.008 83.2322 74.944 83.2322 72.16C83.2322 69.376 82.5442 67.328 81.1682 66.016C79.7922 64.672 77.8402 64 75.3122 64H64.9922Z" fill="#F1F1F1"/>
</svg>
