<svg width="1655" height="1055" viewBox="0 0 1655 1055" fill="none" xmlns="http://www.w3.org/2000/svg">
<g opacity="0.2">
<mask id="path-1-inside-1_2_13" fill="white">
<path d="M435.549 350.453C435.024 346.3 433.962 342.233 432.389 338.353C432.188 337.619 431.837 336.936 431.357 336.345C430.878 335.755 430.281 335.271 429.604 334.924C428.7 334.688 427.751 334.678 426.841 334.893L412.656 337.063C411.469 337.117 410.332 337.559 409.42 338.321C407.573 340.264 409.392 343.392 409.335 346.073C409.272 349.087 406.593 351.534 403.689 352.343C400.725 352.942 397.667 352.904 394.718 352.232L374.883 349.15C380.725 347.285 385.925 343.815 389.889 339.136C392.499 336.044 393.887 330.271 390.115 328.807C388.994 328.499 387.826 328.406 386.67 328.53C377.684 328.6 370.612 321.097 362.199 317.937C356.815 316.045 350.97 315.905 345.501 317.535C340.031 319.165 335.218 322.483 331.748 327.015L342.314 327.524C343.308 327.469 344.294 327.732 345.129 328.275C347.444 330.177 344.565 333.832 344.892 336.811C345.315 340.681 350.455 341.508 354.329 341.899C358.203 342.291 363.117 345.438 361.254 348.857C341.783 355.564 321.968 335.747 301.519 338.186C296.344 338.804 291.457 340.837 286.404 342.115C255.536 349.925 223.625 329.087 192.092 333.5C185.082 334.696 178.192 336.513 171.505 338.93C167.213 340.339 162.736 341.862 159.618 345.13C156.5 348.398 155.313 353.987 158.267 357.404C150.125 358.075 141.928 357.296 134.058 355.103C136.186 356.286 137.957 358.02 139.184 360.124C140.411 362.227 141.049 364.621 141.031 367.056C128.318 369.129 115.941 372.903 104.234 378.276C106.419 381.91 108.971 385.309 111.85 388.422L95.7557 398.762C101.193 400.132 104.005 407.546 100.842 412.177C106.481 409.669 109.975 403.18 116.004 401.865C119.954 401.003 123.973 402.619 127.72 404.136C131.467 405.654 135.585 407.126 139.464 405.987C143.343 404.848 146.204 399.818 143.739 396.614C160.319 391.776 177.453 389.099 194.718 388.649C196.05 388.482 197.401 388.738 198.579 389.382C200.826 390.941 200.235 394.309 200.114 397.041C199.993 399.774 202.123 403.366 204.565 402.134C201.692 404.626 204.148 409.316 206.905 411.937C209.662 414.557 212.984 418.172 211.297 421.58C210.856 422.47 210.109 423.182 209.685 424.079C208.434 426.729 210.421 429.818 212.763 431.577C215.106 433.337 217.976 434.567 219.604 437.003C221.231 439.44 220.492 443.704 217.582 444.045L209.31 433.542C206.484 436.472 204.546 440.144 203.722 444.131C212.494 451.302 213.813 465.897 206.47 474.524C202.717 478.933 197.38 481.612 192.723 485.051C188.065 488.49 183.755 493.387 183.767 499.176C183.787 509.179 182.97 518.471 186.718 527.745C193.629 544.845 201.609 561.493 210.61 577.592C212.974 581.819 216.028 586.452 220.816 587.18C214.765 572.449 209.318 557.488 204.474 542.298C207.629 542.31 211.274 542.561 213.124 545.116C214.655 547.233 214.326 550.11 214.802 552.679C215.407 555.167 216.416 557.54 217.79 559.702L246.686 611.176C249.082 615.443 251.83 620.023 256.408 621.751C259.335 622.856 262.722 622.648 265.416 624.239C267.528 625.486 268.95 627.699 271.103 628.873C277.19 632.194 285.655 625.825 291.344 629.79C292.971 630.924 294.005 632.725 295.504 634.023C300.758 638.573 309.377 635.529 315.442 638.923C319.351 641.11 321.377 645.485 323.462 649.45C328.685 659.381 337.135 669.11 348.327 669.901C351.843 670.149 355.434 669.482 358.871 670.264C362.308 671.046 365.691 674.046 365.139 677.527C364.193 683.495 367.142 690.03 366.35 696.02C364.908 706.931 349.43 711.726 348.101 722.652C347.81 725.044 348.265 727.514 347.696 729.855C346.998 732.725 344.842 735.062 344.077 737.914C342.625 743.32 346.498 748.7 350.753 752.337C355.007 755.974 360.083 759.11 362.409 764.201C364.867 769.582 363.66 775.856 364.459 781.718C366.205 794.515 377.258 804.002 388.633 810.119C392.099 811.982 395.82 813.787 398.063 817.02C400.991 821.24 400.7 826.803 401.677 831.845C404.072 844.194 414.467 854.369 414.762 866.944C414.972 875.882 410.004 883.991 407.036 892.424C404.253 900.504 403.246 909.09 404.084 917.595C404.921 926.099 407.583 934.323 411.888 941.706C414.108 945.455 416.764 948.989 418.334 953.054C421.137 960.306 420.228 968.551 422.812 975.884C426.228 985.579 435.616 993.587 434.718 1003.83C438.98 1012.68 448.391 1017.03 457.855 1019.66L474.816 1024.38C478.064 1025.29 481.458 1026.2 484.764 1025.54C488.071 1024.89 491.227 1022.14 491.142 1018.77C482.825 1016.9 474.24 1014.9 467.384 1009.83C460.527 1004.77 455.831 995.74 458.432 987.62C459.638 983.855 462.205 979.507 459.765 976.396C458.368 974.615 455.813 974.149 454.238 972.524C451.78 969.989 452.624 965.731 454.391 962.674C456.158 959.617 458.712 956.885 459.425 953.427C459.784 951.493 459.544 949.494 458.736 947.7C457.927 945.906 456.59 944.402 454.902 943.39C458.047 942.203 460.908 940.367 463.298 938.003C465.505 935.482 466.525 931.595 464.788 928.729C469.946 929.383 476.034 929.703 479.42 925.758C482.123 922.608 481.938 917.898 480.869 913.886C479.801 909.875 477.996 905.978 477.94 901.828C489.837 902.391 501.76 901.987 513.591 900.619C511.88 894.857 507.992 889.987 502.752 887.044C508.11 886.137 512.992 879.722 514.685 874.558C516.378 869.393 515.946 863.768 514.9 858.435C514.498 857.062 514.443 855.611 514.74 854.211C515.343 852.288 517.232 851.115 518.98 850.111L545.577 834.836C547.165 834.041 548.603 832.979 549.831 831.696C552.617 828.423 552.205 823.482 550.778 819.426C549.351 815.371 547.065 811.558 546.516 807.295C544.872 794.544 558.521 785.395 563.128 773.392C564.936 768.682 565.304 763.562 565.654 758.529C566.03 753.123 566.058 746.843 561.907 743.36C557.928 740.02 551.711 740.765 547.548 737.659C543.73 734.811 542.414 729.281 538.244 726.98C534.457 724.891 529.708 726.22 525.496 725.237C518.081 723.508 513.414 714.961 505.84 714.169C501.567 713.723 496.731 715.812 493.228 713.323C490.142 711.13 490.018 706.723 489.431 702.983C488.402 697.17 485.616 691.813 481.448 687.632C477.281 683.451 471.933 680.648 466.123 679.6C461.718 678.894 456.922 679.162 453.174 676.741C449.378 674.289 447.638 669.699 444.657 666.303C439.852 660.831 432.284 658.887 425.195 657.22L396.36 650.442C391.241 649.238 384.643 648.6 381.896 653.084C381.083 654.791 380.508 656.602 380.185 658.465C379.156 661.836 377.085 664.794 374.269 666.913C371.453 669.032 368.038 670.204 364.514 670.261C362.097 666.139 358.182 663.109 353.586 661.805C350.662 660.99 347.532 660.899 344.743 659.701C343.225 658.959 341.873 657.916 340.772 656.634C339.67 655.352 338.842 653.859 338.337 652.247C337.833 650.634 337.663 648.935 337.837 647.254C338.012 645.573 338.528 643.945 339.354 642.471C341.016 639.511 341.658 636.086 341.181 632.725C340.703 629.364 339.133 626.253 336.712 623.873C331.808 619.471 324.715 618.407 318.14 618.848C316.417 615.09 319.297 610.851 322.4 608.12C325.503 605.389 329.271 602.705 329.946 598.627C331.009 592.213 322.825 587.341 316.611 589.253C310.396 591.166 306.43 597.202 303.808 603.152C302.304 606.565 301.025 610.16 298.652 613.039C296.279 615.917 292.458 617.978 288.844 617.054C283.727 615.747 281.751 609.667 280.618 604.509C279.099 597.588 277.571 590.571 277.889 583.492C278.207 576.413 280.594 569.145 285.813 564.353C294.319 556.544 307.368 557.31 318.847 558.555C316.135 555.5 316.805 550.35 319.707 547.474C321.239 546.113 323.08 545.146 325.07 544.657C327.06 544.168 329.139 544.172 331.127 544.668C334.586 545.388 337.702 547.251 339.974 549.958C343.236 553.935 344.163 559.305 346.629 563.819C349.095 568.334 354.639 572.184 359.177 569.762C363.097 567.67 363.719 562.235 362.743 557.9C361.768 553.566 359.696 549.351 360.049 544.922C360.724 536.471 369.484 531.384 377.214 527.904C384.944 524.424 393.796 519.743 395.021 511.354C395.063 509.712 395.373 508.087 395.938 506.545C396.795 505.182 397.987 504.062 399.399 503.29C421.961 488.38 444.897 473.288 470.683 465.141C472.025 464.717 472.182 465.188 473.55 464.856C475.463 463.75 474.195 460.691 472.361 459.458C470.526 458.226 468.074 457.281 467.608 455.12C467.266 453.532 468.202 451.973 468.445 450.366C469.042 446.419 464.32 442.775 460.653 444.353C458.582 441.609 462.681 438.422 465.995 437.51C475.946 434.771 486.162 433.102 496.468 432.532C497.657 432.342 498.876 432.55 499.935 433.121C501.666 434.32 501.445 437.07 500.218 438.782C498.992 440.493 497.083 441.568 495.555 443.016C493.885 444.643 492.693 446.698 492.111 448.955C491.529 451.213 491.578 453.588 492.253 455.82C497.633 458.556 503.482 461.374 509.441 460.409C515.4 459.445 520.689 452.75 517.888 447.403C515.28 442.424 507.445 441.301 506.098 435.843C504.52 429.454 513.565 423.771 511.528 417.513C510.635 414.772 507.903 413.158 505.807 411.179C503.331 408.753 501.647 405.634 500.976 402.233C500.305 398.832 500.678 395.308 502.046 392.123C498.632 392.724 495.123 392.497 491.814 391.461C488.506 390.426 485.493 388.612 483.031 386.172C478.482 381.582 474.854 374.341 468.395 374.546C462.468 374.735 457.363 381.65 451.821 379.54C450.457 379.021 449.02 377.965 447.699 378.584C447.266 378.865 446.902 379.241 446.636 379.683C446.37 380.125 446.207 380.622 446.161 381.136C444.753 387.869 447.175 395.541 443.506 401.36C439.512 407.692 430.275 408.569 425.433 414.279C422.805 417.379 421.787 421.555 419.371 424.823C416.956 428.09 411.829 430.168 408.93 427.32C410.354 424.391 410.743 421.065 410.033 417.887C409.323 414.708 407.556 411.864 405.02 409.82C402.328 408.064 399.427 406.652 396.384 405.619C392.984 404.18 389.749 402.377 386.736 400.242C385.227 399.332 384.001 398.02 383.194 396.453C382.557 394.49 382.643 392.364 383.437 390.46C384.907 386.245 387.5 382.512 390.937 379.664C394.373 376.815 398.523 374.96 402.937 374.297C406.797 373.772 411.289 373.957 413.843 371.016C415.195 369.46 415.904 367.107 417.866 366.475C419.121 366.223 420.424 366.384 421.58 366.933L435.987 372.004C437.595 372.729 439.364 373.022 441.119 372.852C441.99 372.735 442.784 372.293 443.342 371.615C443.9 370.937 444.181 370.072 444.128 369.196C443.668 366.803 439.986 365.655 440.321 363.242C440.509 362.46 440.93 361.753 441.527 361.215C446.727 355.681 453.085 351.365 460.148 348.576C467.21 345.787 474.802 344.594 482.38 345.083C484.198 348.069 481.322 351.606 478.929 354.155C476.536 356.705 474.613 361.26 477.507 363.222C478.693 363.828 480.012 364.125 481.343 364.086C484.89 364.566 488.337 365.612 491.553 367.183C496.532 369.35 501.415 371.72 506.202 374.295C505.779 371.138 505.376 367.813 506.572 364.861C507.769 361.91 511.169 359.595 514.139 360.744C517.001 361.852 518.469 365.642 521.519 365.989C525.587 366.453 527.192 360.443 525.493 356.718C523.793 352.993 520.43 349.874 520.149 345.79C519.959 343.034 521.008 339.616 518.807 337.948C518.024 337.447 517.134 337.135 516.21 337.037L461.25 326.924C457.986 326.323 453.271 326.783 453.126 330.099C453.045 331.949 454.698 333.78 453.966 335.481C453.184 337.297 450.617 337.131 448.748 337.774C445.847 338.77 444.391 342.215 444.669 345.27C445.18 348.305 446.355 351.19 448.112 353.718C444.537 352.223 439.124 351.948 435.549 350.453Z"/>
</mask>
<path d="M435.549 350.453C435.024 346.3 433.962 342.233 432.389 338.353C432.188 337.619 431.837 336.936 431.357 336.345C430.878 335.755 430.281 335.271 429.604 334.924C428.7 334.688 427.751 334.678 426.841 334.893L412.656 337.063C411.469 337.117 410.332 337.559 409.42 338.321C407.573 340.264 409.392 343.392 409.335 346.073C409.272 349.087 406.593 351.534 403.689 352.343C400.725 352.942 397.667 352.904 394.718 352.232L374.883 349.15C380.725 347.285 385.925 343.815 389.889 339.136C392.499 336.044 393.887 330.271 390.115 328.807C388.994 328.499 387.826 328.406 386.67 328.53C377.684 328.6 370.612 321.097 362.199 317.937C356.815 316.045 350.97 315.905 345.501 317.535C340.031 319.165 335.218 322.483 331.748 327.015L342.314 327.524C343.308 327.469 344.294 327.732 345.129 328.275C347.444 330.177 344.565 333.832 344.892 336.811C345.315 340.681 350.455 341.508 354.329 341.899C358.203 342.291 363.117 345.438 361.254 348.857C341.783 355.564 321.968 335.747 301.519 338.186C296.344 338.804 291.457 340.837 286.404 342.115C255.536 349.925 223.625 329.087 192.092 333.5C185.082 334.696 178.192 336.513 171.505 338.93C167.213 340.339 162.736 341.862 159.618 345.13C156.5 348.398 155.313 353.987 158.267 357.404C150.125 358.075 141.928 357.296 134.058 355.103C136.186 356.286 137.957 358.02 139.184 360.124C140.411 362.227 141.049 364.621 141.031 367.056C128.318 369.129 115.941 372.903 104.234 378.276C106.419 381.91 108.971 385.309 111.85 388.422L95.7557 398.762C101.193 400.132 104.005 407.546 100.842 412.177C106.481 409.669 109.975 403.18 116.004 401.865C119.954 401.003 123.973 402.619 127.72 404.136C131.467 405.654 135.585 407.126 139.464 405.987C143.343 404.848 146.204 399.818 143.739 396.614C160.319 391.776 177.453 389.099 194.718 388.649C196.05 388.482 197.401 388.738 198.579 389.382C200.826 390.941 200.235 394.309 200.114 397.041C199.993 399.774 202.123 403.366 204.565 402.134C201.692 404.626 204.148 409.316 206.905 411.937C209.662 414.557 212.984 418.172 211.297 421.58C210.856 422.47 210.109 423.182 209.685 424.079C208.434 426.729 210.421 429.818 212.763 431.577C215.106 433.337 217.976 434.567 219.604 437.003C221.231 439.44 220.492 443.704 217.582 444.045L209.31 433.542C206.484 436.472 204.546 440.144 203.722 444.131C212.494 451.302 213.813 465.897 206.47 474.524C202.717 478.933 197.38 481.612 192.723 485.051C188.065 488.49 183.755 493.387 183.767 499.176C183.787 509.179 182.97 518.471 186.718 527.745C193.629 544.845 201.609 561.493 210.61 577.592C212.974 581.819 216.028 586.452 220.816 587.18C214.765 572.449 209.318 557.488 204.474 542.298C207.629 542.31 211.274 542.561 213.124 545.116C214.655 547.233 214.326 550.11 214.802 552.679C215.407 555.167 216.416 557.54 217.79 559.702L246.686 611.176C249.082 615.443 251.83 620.023 256.408 621.751C259.335 622.856 262.722 622.648 265.416 624.239C267.528 625.486 268.95 627.699 271.103 628.873C277.19 632.194 285.655 625.825 291.344 629.79C292.971 630.924 294.005 632.725 295.504 634.023C300.758 638.573 309.377 635.529 315.442 638.923C319.351 641.11 321.377 645.485 323.462 649.45C328.685 659.381 337.135 669.11 348.327 669.901C351.843 670.149 355.434 669.482 358.871 670.264C362.308 671.046 365.691 674.046 365.139 677.527C364.193 683.495 367.142 690.03 366.35 696.02C364.908 706.931 349.43 711.726 348.101 722.652C347.81 725.044 348.265 727.514 347.696 729.855C346.998 732.725 344.842 735.062 344.077 737.914C342.625 743.32 346.498 748.7 350.753 752.337C355.007 755.974 360.083 759.11 362.409 764.201C364.867 769.582 363.66 775.856 364.459 781.718C366.205 794.515 377.258 804.002 388.633 810.119C392.099 811.982 395.82 813.787 398.063 817.02C400.991 821.24 400.7 826.803 401.677 831.845C404.072 844.194 414.467 854.369 414.762 866.944C414.972 875.882 410.004 883.991 407.036 892.424C404.253 900.504 403.246 909.09 404.084 917.595C404.921 926.099 407.583 934.323 411.888 941.706C414.108 945.455 416.764 948.989 418.334 953.054C421.137 960.306 420.228 968.551 422.812 975.884C426.228 985.579 435.616 993.587 434.718 1003.83C438.98 1012.68 448.391 1017.03 457.855 1019.66L474.816 1024.38C478.064 1025.29 481.458 1026.2 484.764 1025.54C488.071 1024.89 491.227 1022.14 491.142 1018.77C482.825 1016.9 474.24 1014.9 467.384 1009.83C460.527 1004.77 455.831 995.74 458.432 987.62C459.638 983.855 462.205 979.507 459.765 976.396C458.368 974.615 455.813 974.149 454.238 972.524C451.78 969.989 452.624 965.731 454.391 962.674C456.158 959.617 458.712 956.885 459.425 953.427C459.784 951.493 459.544 949.494 458.736 947.7C457.927 945.906 456.59 944.402 454.902 943.39C458.047 942.203 460.908 940.367 463.298 938.003C465.505 935.482 466.525 931.595 464.788 928.729C469.946 929.383 476.034 929.703 479.42 925.758C482.123 922.608 481.938 917.898 480.869 913.886C479.801 909.875 477.996 905.978 477.94 901.828C489.837 902.391 501.76 901.987 513.591 900.619C511.88 894.857 507.992 889.987 502.752 887.044C508.11 886.137 512.992 879.722 514.685 874.558C516.378 869.393 515.946 863.768 514.9 858.435C514.498 857.062 514.443 855.611 514.74 854.211C515.343 852.288 517.232 851.115 518.98 850.111L545.577 834.836C547.165 834.041 548.603 832.979 549.831 831.696C552.617 828.423 552.205 823.482 550.778 819.426C549.351 815.371 547.065 811.558 546.516 807.295C544.872 794.544 558.521 785.395 563.128 773.392C564.936 768.682 565.304 763.562 565.654 758.529C566.03 753.123 566.058 746.843 561.907 743.36C557.928 740.02 551.711 740.765 547.548 737.659C543.73 734.811 542.414 729.281 538.244 726.98C534.457 724.891 529.708 726.22 525.496 725.237C518.081 723.508 513.414 714.961 505.84 714.169C501.567 713.723 496.731 715.812 493.228 713.323C490.142 711.13 490.018 706.723 489.431 702.983C488.402 697.17 485.616 691.813 481.448 687.632C477.281 683.451 471.933 680.648 466.123 679.6C461.718 678.894 456.922 679.162 453.174 676.741C449.378 674.289 447.638 669.699 444.657 666.303C439.852 660.831 432.284 658.887 425.195 657.22L396.36 650.442C391.241 649.238 384.643 648.6 381.896 653.084C381.083 654.791 380.508 656.602 380.185 658.465C379.156 661.836 377.085 664.794 374.269 666.913C371.453 669.032 368.038 670.204 364.514 670.261C362.097 666.139 358.182 663.109 353.586 661.805C350.662 660.99 347.532 660.899 344.743 659.701C343.225 658.959 341.873 657.916 340.772 656.634C339.67 655.352 338.842 653.859 338.337 652.247C337.833 650.634 337.663 648.935 337.837 647.254C338.012 645.573 338.528 643.945 339.354 642.471C341.016 639.511 341.658 636.086 341.181 632.725C340.703 629.364 339.133 626.253 336.712 623.873C331.808 619.471 324.715 618.407 318.14 618.848C316.417 615.09 319.297 610.851 322.4 608.12C325.503 605.389 329.271 602.705 329.946 598.627C331.009 592.213 322.825 587.341 316.611 589.253C310.396 591.166 306.43 597.202 303.808 603.152C302.304 606.565 301.025 610.16 298.652 613.039C296.279 615.917 292.458 617.978 288.844 617.054C283.727 615.747 281.751 609.667 280.618 604.509C279.099 597.588 277.571 590.571 277.889 583.492C278.207 576.413 280.594 569.145 285.813 564.353C294.319 556.544 307.368 557.31 318.847 558.555C316.135 555.5 316.805 550.35 319.707 547.474C321.239 546.113 323.08 545.146 325.07 544.657C327.06 544.168 329.139 544.172 331.127 544.668C334.586 545.388 337.702 547.251 339.974 549.958C343.236 553.935 344.163 559.305 346.629 563.819C349.095 568.334 354.639 572.184 359.177 569.762C363.097 567.67 363.719 562.235 362.743 557.9C361.768 553.566 359.696 549.351 360.049 544.922C360.724 536.471 369.484 531.384 377.214 527.904C384.944 524.424 393.796 519.743 395.021 511.354C395.063 509.712 395.373 508.087 395.938 506.545C396.795 505.182 397.987 504.062 399.399 503.29C421.961 488.38 444.897 473.288 470.683 465.141C472.025 464.717 472.182 465.188 473.55 464.856C475.463 463.75 474.195 460.691 472.361 459.458C470.526 458.226 468.074 457.281 467.608 455.12C467.266 453.532 468.202 451.973 468.445 450.366C469.042 446.419 464.32 442.775 460.653 444.353C458.582 441.609 462.681 438.422 465.995 437.51C475.946 434.771 486.162 433.102 496.468 432.532C497.657 432.342 498.876 432.55 499.935 433.121C501.666 434.32 501.445 437.07 500.218 438.782C498.992 440.493 497.083 441.568 495.555 443.016C493.885 444.643 492.693 446.698 492.111 448.955C491.529 451.213 491.578 453.588 492.253 455.82C497.633 458.556 503.482 461.374 509.441 460.409C515.4 459.445 520.689 452.75 517.888 447.403C515.28 442.424 507.445 441.301 506.098 435.843C504.52 429.454 513.565 423.771 511.528 417.513C510.635 414.772 507.903 413.158 505.807 411.179C503.331 408.753 501.647 405.634 500.976 402.233C500.305 398.832 500.678 395.308 502.046 392.123C498.632 392.724 495.123 392.497 491.814 391.461C488.506 390.426 485.493 388.612 483.031 386.172C478.482 381.582 474.854 374.341 468.395 374.546C462.468 374.735 457.363 381.65 451.821 379.54C450.457 379.021 449.02 377.965 447.699 378.584C447.266 378.865 446.902 379.241 446.636 379.683C446.37 380.125 446.207 380.622 446.161 381.136C444.753 387.869 447.175 395.541 443.506 401.36C439.512 407.692 430.275 408.569 425.433 414.279C422.805 417.379 421.787 421.555 419.371 424.823C416.956 428.09 411.829 430.168 408.93 427.32C410.354 424.391 410.743 421.065 410.033 417.887C409.323 414.708 407.556 411.864 405.02 409.82C402.328 408.064 399.427 406.652 396.384 405.619C392.984 404.18 389.749 402.377 386.736 400.242C385.227 399.332 384.001 398.02 383.194 396.453C382.557 394.49 382.643 392.364 383.437 390.46C384.907 386.245 387.5 382.512 390.937 379.664C394.373 376.815 398.523 374.96 402.937 374.297C406.797 373.772 411.289 373.957 413.843 371.016C415.195 369.46 415.904 367.107 417.866 366.475C419.121 366.223 420.424 366.384 421.58 366.933L435.987 372.004C437.595 372.729 439.364 373.022 441.119 372.852C441.99 372.735 442.784 372.293 443.342 371.615C443.9 370.937 444.181 370.072 444.128 369.196C443.668 366.803 439.986 365.655 440.321 363.242C440.509 362.46 440.93 361.753 441.527 361.215C446.727 355.681 453.085 351.365 460.148 348.576C467.21 345.787 474.802 344.594 482.38 345.083C484.198 348.069 481.322 351.606 478.929 354.155C476.536 356.705 474.613 361.26 477.507 363.222C478.693 363.828 480.012 364.125 481.343 364.086C484.89 364.566 488.337 365.612 491.553 367.183C496.532 369.35 501.415 371.72 506.202 374.295C505.779 371.138 505.376 367.813 506.572 364.861C507.769 361.91 511.169 359.595 514.139 360.744C517.001 361.852 518.469 365.642 521.519 365.989C525.587 366.453 527.192 360.443 525.493 356.718C523.793 352.993 520.43 349.874 520.149 345.79C519.959 343.034 521.008 339.616 518.807 337.948C518.024 337.447 517.134 337.135 516.21 337.037L461.25 326.924C457.986 326.323 453.271 326.783 453.126 330.099C453.045 331.949 454.698 333.78 453.966 335.481C453.184 337.297 450.617 337.131 448.748 337.774C445.847 338.77 444.391 342.215 444.669 345.27C445.18 348.305 446.355 351.19 448.112 353.718C444.537 352.223 439.124 351.948 435.549 350.453Z" stroke="white" stroke-width="2" mask="url(#path-1-inside-1_2_13)"/>
<mask id="path-2-inside-2_2_13" fill="white">
<path d="M391.696 303.798C388.23 302.651 384.496 302.598 380.999 303.645C377.502 304.693 374.411 306.79 372.147 309.653C371.242 310.845 370.482 312.487 371.239 313.777C372.325 315.627 375.093 314.896 377.133 314.235C380.132 313.163 383.397 313.085 386.443 314.013C388.359 314.67 390.073 315.833 391.998 316.466C392.934 316.858 393.96 316.987 394.965 316.84C395.969 316.693 396.915 316.276 397.701 315.632C399.021 314.286 399.104 312.192 399.106 310.305C399.198 309.674 399.148 309.03 398.959 308.421C398.77 307.812 398.447 307.253 398.015 306.784C397.244 306.338 396.379 306.082 395.49 306.037C393.499 305.669 391.699 304.617 390.4 303.063"/>
</mask>
<path d="M372.147 309.653L371.362 309.033L371.356 309.04L371.35 309.048L372.147 309.653ZM371.239 313.777L370.377 314.284L370.377 314.284L371.239 313.777ZM377.133 314.235L377.442 315.186L377.456 315.181L377.47 315.176L377.133 314.235ZM386.443 314.013L386.768 313.067L386.751 313.061L386.734 313.056L386.443 314.013ZM391.998 316.466L392.383 315.543L392.347 315.528L392.31 315.516L391.998 316.466ZM397.701 315.632L398.334 316.406L398.376 316.372L398.415 316.333L397.701 315.632ZM399.106 310.305L398.117 310.162L398.107 310.232L398.106 310.304L399.106 310.305ZM398.015 306.784L398.749 306.106L398.647 305.994L398.516 305.919L398.015 306.784ZM395.49 306.037L395.308 307.02L395.373 307.032L395.44 307.036L395.49 306.037ZM392.01 302.849C388.35 301.638 384.405 301.581 380.712 302.687L381.286 304.603C384.586 303.615 388.111 303.665 391.382 304.748L392.01 302.849ZM380.712 302.687C377.018 303.793 373.754 306.009 371.362 309.033L372.931 310.273C375.068 307.571 377.985 305.592 381.286 304.603L380.712 302.687ZM371.35 309.048C370.854 309.701 370.363 310.521 370.109 311.4C369.852 312.287 369.815 313.326 370.377 314.284L372.102 313.271C371.906 312.938 371.87 312.51 372.03 311.956C372.193 311.394 372.534 310.796 372.943 310.258L371.35 309.048ZM370.377 314.284C371.188 315.664 372.61 315.987 373.86 315.947C375.099 315.908 376.423 315.516 377.442 315.186L376.825 313.283C375.804 313.615 374.723 313.919 373.797 313.948C372.882 313.977 372.377 313.74 372.102 313.271L370.377 314.284ZM377.47 315.176C380.267 314.177 383.311 314.104 386.152 314.969L386.734 313.056C383.482 312.066 379.998 312.149 376.797 313.293L377.47 315.176ZM386.119 314.958C387.003 315.262 387.85 315.685 388.772 316.144C389.672 316.592 390.644 317.073 391.685 317.416L392.31 315.516C391.427 315.225 390.579 314.809 389.663 314.353C388.767 313.908 387.799 313.421 386.768 313.067L386.119 314.958ZM391.612 317.388C392.716 317.85 393.925 318.003 395.109 317.83L394.82 315.851C393.995 315.971 393.153 315.865 392.383 315.543L391.612 317.388ZM395.109 317.83C396.294 317.657 397.408 317.165 398.334 316.406L397.067 314.859C396.422 315.387 395.645 315.73 394.82 315.851L395.109 317.83ZM398.415 316.333C399.256 315.475 399.669 314.411 399.878 313.368C400.086 312.334 400.105 311.251 400.106 310.306L398.106 310.304C398.105 311.246 398.082 312.153 397.917 312.974C397.754 313.787 397.466 314.443 396.987 314.932L398.415 316.333ZM400.096 310.449C400.209 309.67 400.147 308.876 399.914 308.125L398.004 308.717C398.148 309.184 398.187 309.678 398.117 310.162L400.096 310.449ZM399.914 308.125C399.681 307.374 399.283 306.684 398.749 306.106L397.28 307.462C397.611 307.821 397.859 308.25 398.004 308.717L399.914 308.125ZM398.516 305.919C397.608 305.393 396.588 305.091 395.54 305.038L395.44 307.036C396.17 307.072 396.881 307.283 397.513 307.649L398.516 305.919ZM395.672 305.054C393.91 304.728 392.317 303.797 391.167 302.422L389.633 303.705C391.081 305.437 393.088 306.609 395.308 307.02L395.672 305.054Z" fill="white" mask="url(#path-2-inside-2_2_13)"/>
<mask id="path-4-inside-3_2_13" fill="white">
<path d="M411.514 298.281C410.738 298.238 409.965 298.396 409.268 298.739C408.571 299.083 407.974 299.599 407.535 300.24C407.095 300.88 406.828 301.623 406.758 302.396C406.689 303.17 406.82 303.948 407.138 304.657C409.52 305.306 412.008 305.469 414.454 305.134C415.674 304.944 416.811 304.398 417.721 303.564C418.631 302.729 419.274 301.644 419.568 300.445C416.688 300.969 413.716 300.402 411.232 298.853"/>
</mask>
<path d="M407.138 304.657L406.226 305.067L406.419 305.497L406.875 305.622L407.138 304.657ZM414.454 305.134L414.59 306.125L414.599 306.123L414.608 306.122L414.454 305.134ZM419.568 300.445L420.539 300.684L420.907 299.185L419.389 299.461L419.568 300.445ZM411.568 297.282C410.621 297.231 409.677 297.423 408.826 297.842L409.71 299.637C410.252 299.369 410.855 299.246 411.459 299.279L411.568 297.282ZM408.826 297.842C407.975 298.261 407.247 298.892 406.71 299.674L408.359 300.805C408.702 300.306 409.167 299.904 409.71 299.637L408.826 297.842ZM406.71 299.674C406.174 300.456 405.847 301.362 405.762 302.307L407.754 302.486C407.808 301.883 408.017 301.304 408.359 300.805L406.71 299.674ZM405.762 302.307C405.678 303.251 405.837 304.202 406.226 305.067L408.05 304.247C407.802 303.695 407.7 303.088 407.754 302.486L405.762 302.307ZM406.875 305.622C409.386 306.307 412.011 306.478 414.59 306.125L414.319 304.143C412.006 304.46 409.653 304.306 407.401 303.692L406.875 305.622ZM414.608 306.122C416.023 305.902 417.341 305.269 418.397 304.301L417.045 302.827C416.281 303.528 415.326 303.987 414.301 304.146L414.608 306.122ZM418.397 304.301C419.452 303.333 420.198 302.074 420.539 300.684L418.597 300.207C418.35 301.214 417.81 302.126 417.045 302.827L418.397 304.301ZM419.389 299.461C416.754 299.941 414.034 299.422 411.761 298.005L410.703 299.702C413.398 301.382 416.623 301.998 419.747 301.429L419.389 299.461Z" fill="white" mask="url(#path-4-inside-3_2_13)"/>
<path d="M468.734 309.704L468.742 309.669L468.744 309.633C468.966 306.513 468.18 303.404 466.502 300.765C465.026 298.444 462.93 296.595 460.462 295.419C466.107 292.815 472.025 290.848 478.108 289.555C479.564 289.245 481.164 288.942 482.731 288.902C484.299 288.862 485.795 289.087 487.061 289.8C488.247 290.468 488.841 291.608 489.396 292.871C489.448 292.989 489.5 293.108 489.552 293.229C489.771 293.735 489.997 294.256 490.257 294.724C490.584 295.31 490.99 295.863 491.566 296.261C494.396 298.211 497.708 297.596 500.866 296.264C502.454 295.594 504.041 294.727 505.558 293.865C505.891 293.676 506.22 293.488 506.545 293.301C507.709 292.635 508.819 291.999 509.865 291.475C524.665 284.117 541.463 281.811 557.691 284.902C557.513 286.613 556.316 287.841 554.562 288.719C552.667 289.667 550.22 290.146 548.063 290.334C538.824 291.138 529.635 292.447 520.539 294.253C519.161 294.419 517.846 294.922 516.711 295.719L516.694 295.731L516.678 295.744C515.519 296.711 515.002 298.095 514.581 299.403C514.524 299.579 514.469 299.755 514.414 299.928C514.051 301.082 513.713 302.152 513.074 303.029C512.052 304.429 510.573 305.064 508.782 305.298C506.99 305.532 504.951 305.357 502.848 305.176L502.792 305.171C500.698 304.992 498.539 304.81 496.636 305.091C494.712 305.376 492.99 306.143 491.835 307.902L491.818 307.927L491.805 307.954C491.164 309.244 490.601 310.571 490.12 311.929C489.335 313.266 488.232 314.39 486.908 315.198C485.572 316.015 484.053 316.486 482.49 316.568C479.253 316.702 476.017 316.289 472.918 315.346L472.904 315.342L472.891 315.338C472.018 315.125 471.13 314.872 470.383 314.483C469.65 314.102 469.093 313.61 468.805 312.936C468.525 311.88 468.501 310.772 468.734 309.704Z" stroke="white"/>
<path d="M539.686 300.131L533.276 298.9C536.627 297.119 540.287 296.383 544.079 295.933C545.464 295.768 546.875 295.642 548.295 295.515C551.171 295.257 554.081 294.997 556.873 294.411C559.192 293.924 561.065 292.989 562.827 292.012C563.156 291.83 563.48 291.646 563.802 291.464C565.217 290.664 566.589 289.889 568.151 289.308C570.398 288.472 572.956 288.15 575.611 288.006C576.937 287.935 578.277 287.908 579.609 287.881L579.647 287.881C580.963 287.855 582.271 287.829 583.534 287.76L658.878 283.63C671.732 282.925 684.594 282.224 697.377 283.286C701.072 283.593 704.817 284.13 707.564 286.348C708.909 287.434 709.882 289.087 710.222 290.787C710.561 292.485 710.261 294.17 709.148 295.39C708.482 296.12 707.612 296.619 706.643 297.116C706.496 297.191 706.347 297.267 706.196 297.343C705.372 297.758 704.494 298.201 703.728 298.792C701.173 300.764 700.363 303.73 700.432 306.843C700.497 309.75 701.328 312.855 702.288 315.571L673.622 320.926L673.433 320.961L673.316 321.114C672.378 322.345 672.336 323.831 672.727 325.217C673.116 326.599 673.95 327.941 674.868 328.987C675.179 329.343 675.496 329.686 675.809 330.026C676.419 330.687 677.017 331.336 677.544 332.035C678.326 333.075 678.878 334.141 678.966 335.341C679.067 336.732 678.484 338.035 677.488 339.111C676.491 340.188 675.103 341.008 673.677 341.414C672.23 341.826 670.724 341.946 669.169 341.982C668.58 341.995 667.974 341.996 667.361 341.997C666.386 341.999 665.396 342.001 664.434 342.052C658.755 342.358 653.523 344.362 648.465 346.851C646.253 347.939 644.066 349.125 641.888 350.306C641.576 350.475 641.264 350.644 640.953 350.813C638.462 352.161 635.978 353.484 633.457 354.644C626.851 357.682 619.831 359.64 612.776 361.607C611.149 362.061 609.52 362.515 607.893 362.983C605.527 363.665 602.998 364.496 600.797 365.733C598.592 366.972 596.684 368.636 595.603 370.996C594.559 373.276 594.472 375.884 594.389 378.343C594.379 378.658 594.368 378.97 594.356 379.279C594.245 382.06 593.983 384.58 592.39 386.532C591.176 388.019 589.455 388.832 587.489 389.262C585.518 389.694 583.346 389.731 581.279 389.701C578.435 389.66 575.469 389.549 572.736 388.942C570.014 388.338 567.561 387.25 565.704 385.283C563.804 382.931 562.435 380.196 561.694 377.264L561.689 377.247L561.684 377.23C560.369 373.253 559.099 369.006 558.701 364.879C558.303 360.755 558.778 356.793 560.91 353.356C561.77 351.969 562.864 350.746 564.017 349.515C564.181 349.34 564.347 349.165 564.513 348.988C565.505 347.937 566.521 346.86 567.405 345.681C569.468 342.934 570.892 338.96 569.147 335.732C568.812 335.111 568.367 334.544 567.955 334.019C567.865 333.904 567.775 333.79 567.689 333.678C567.197 333.039 566.785 332.438 566.574 331.757C566.275 330.791 566.404 329.783 566.689 328.681C566.793 328.281 566.913 327.883 567.037 327.473C567.084 327.317 567.131 327.16 567.178 327.001C567.347 326.429 567.51 325.838 567.614 325.24C568.306 321.237 566.276 317.827 563.178 315.415C560.082 313.006 555.856 311.53 551.945 311.365C549.167 311.248 546.339 311.483 543.557 311.714C542.486 311.803 541.421 311.892 540.368 311.959C536.667 312.197 533.071 312.183 529.642 311.107C529.58 309.867 529.761 308.627 530.176 307.455C530.627 306.179 531.346 305.014 532.283 304.038C533.22 303.062 534.355 302.297 535.612 301.794C536.868 301.291 538.217 301.062 539.569 301.122L539.686 300.131Z" stroke="white"/>
<path d="M667.861 362.573L667.866 362.546L667.867 362.518C667.899 362.005 668.098 361.518 668.433 361.131C668.975 360.775 669.631 360.634 670.273 360.735L670.295 360.739L670.316 360.74C675.421 361.095 680.525 360.052 685.081 357.724C685.65 357.466 686.192 357.203 686.72 356.948C688.073 356.292 689.327 355.684 690.666 355.35C692.471 354.899 694.398 354.965 696.781 356.252C698.569 357.218 699.776 358.099 700.529 358.894C701.281 359.687 701.547 360.357 701.546 360.915C701.544 361.473 701.277 362.03 700.724 362.599C700.17 363.171 699.363 363.717 698.375 364.238C696.399 365.278 693.811 366.155 691.378 366.917C690.851 367.083 690.328 367.243 689.821 367.399C688.023 367.952 686.414 368.447 685.424 368.895L685.424 368.895C684.155 369.47 682.972 370.282 681.839 371.06C681.501 371.293 681.167 371.522 680.836 371.742C679.374 372.712 677.946 373.507 676.331 373.715C674.995 373.828 673.653 373.581 672.444 373.002C671.233 372.421 670.2 371.527 669.45 370.413C667.952 368.093 667.384 365.293 667.861 362.573Z" stroke="white"/>
<path d="M797.451 295.181L797.468 295.173L797.485 295.165C800.768 293.527 809.162 291.347 817.326 290.557C821.401 290.162 825.381 290.118 828.61 290.648C831.869 291.182 834.217 292.277 835.237 294.024C835.849 295.072 836.055 296.016 836.002 296.863C835.948 297.713 835.629 298.503 835.128 299.237C834.116 300.719 832.401 301.912 830.849 302.783C829.818 303.362 829.085 303.635 828.532 303.788C828.253 303.864 828.015 303.912 827.795 303.953C827.759 303.959 827.724 303.966 827.688 303.973C827.509 304.005 827.327 304.039 827.157 304.083C826.707 304.199 826.316 304.396 825.882 304.853C825.472 305.285 825.022 305.952 824.417 306.996C823.97 307.768 823.828 308.553 823.772 309.279C823.749 309.58 823.74 309.879 823.731 310.161C823.73 310.216 823.728 310.271 823.726 310.324C823.715 310.659 823.701 310.966 823.663 311.258C823.589 311.833 823.426 312.313 823.039 312.728C822.646 313.15 821.975 313.556 820.786 313.877C818.565 314.294 816.279 314.219 814.091 313.657L814.05 313.646L814.008 313.643C813.261 313.579 812.548 313.304 811.953 312.849C811.359 312.271 811.271 311.447 811.327 310.341C811.337 310.137 811.353 309.913 811.37 309.681C811.395 309.33 811.421 308.962 811.431 308.622C811.447 308.031 811.42 307.414 811.255 306.821C810.803 305.201 809.53 304.251 808.072 303.701C806.619 303.154 804.911 302.974 803.43 302.93L796.551 302.724L796.535 302.724L796.519 302.724C795.927 302.744 795.336 302.653 794.777 302.457C794.128 302.058 793.651 301.43 793.443 300.695C793.232 299.949 793.315 299.15 793.674 298.463C794.537 296.983 795.864 295.829 797.451 295.181Z" stroke="white"/>
<path d="M920.721 299.773L920.707 299.769L920.694 299.766C918.515 299.248 916.293 298.931 914.056 298.821C910.577 298.454 907.155 297.674 903.864 296.498C912.063 294.101 920.589 292.959 929.115 291.821L929.049 291.326L929.115 291.821L933.109 291.288C933.429 291.245 933.812 291.187 934.241 291.123C936.196 290.828 939.102 290.39 941.35 290.577C942.027 290.633 942.618 290.745 943.089 290.922C943.562 291.1 943.88 291.33 944.065 291.602C944.408 292.106 944.453 293.043 943.346 294.797C943.347 294.796 943.343 294.802 943.333 294.813C943.322 294.825 943.307 294.84 943.285 294.86C943.241 294.898 943.179 294.945 943.096 294.999C942.93 295.107 942.707 295.227 942.433 295.358C941.886 295.62 941.187 295.901 940.447 296.187C940.234 296.27 940.017 296.354 939.8 296.437C939.273 296.639 938.748 296.841 938.276 297.034C937.621 297.301 937.018 297.571 936.642 297.821C935.753 298.413 935.095 299.235 934.491 299.989C934.395 300.108 934.301 300.226 934.207 300.341C933.502 301.205 932.808 301.949 931.785 302.367C930.109 303.05 928.367 302.742 926.495 302.064C925.71 301.78 924.923 301.439 924.119 301.09C923.964 301.023 923.809 300.956 923.653 300.889C922.693 300.476 921.71 300.067 920.721 299.773Z" stroke="white"/>
<path d="M936.186 320.108C940.611 315.949 945.529 312.348 950.829 309.384C953.246 308.033 957.991 306.176 962.336 305.808C964.508 305.624 966.526 305.816 968.095 306.58C969.636 307.329 970.785 308.647 971.223 310.827C971.589 312.646 971.105 313.957 970.13 314.954C969.125 315.982 967.565 316.711 965.732 317.24C963.909 317.766 961.875 318.079 959.975 318.312C959.295 318.395 958.627 318.469 957.993 318.538C956.876 318.662 955.862 318.773 955.071 318.906C953.552 319.162 951.842 319.55 950.398 320.266C948.95 320.985 947.714 322.065 947.259 323.726C946.861 325.178 947.208 326.574 947.824 327.845C948.411 329.056 949.271 330.207 950.039 331.236C950.072 331.28 950.105 331.323 950.137 331.367C950.918 332.414 951.634 333.647 951.972 334.86C952.269 335.925 952.264 336.927 951.808 337.784L939.433 332.544C937.867 331.881 936.223 331.074 934.948 330.032C933.677 328.993 932.819 327.759 932.719 326.239L932.22 326.272L932.719 326.239C932.643 325.093 933.029 324.007 933.686 322.974C934.345 321.937 935.257 320.981 936.186 320.108Z" stroke="white"/>
<path d="M969.954 844.054L969.947 844.062L969.94 844.07C967.335 847.238 963.803 849.511 959.84 850.568C955.901 851.406 951.416 850.148 949.202 846.913C947.223 844.021 947.302 840.059 948.49 836.62C949.815 832.785 951.92 829.262 954.086 825.691C954.153 825.581 954.22 825.47 954.287 825.359C956.379 821.911 958.504 818.409 959.932 814.592C960.518 813.027 960.993 811.542 961.443 810.123C961.466 810.052 961.488 809.981 961.511 809.911C961.937 808.566 962.344 807.284 962.808 806.034C963.782 803.413 965.005 800.946 967.162 798.443C967.798 797.703 968.612 796.517 969.498 795.16C970.003 794.387 970.541 793.544 971.089 792.684C971.504 792.034 971.924 791.375 972.341 790.73C973.316 789.221 974.279 787.773 975.142 786.625C975.573 786.051 975.973 785.56 976.332 785.177C976.698 784.787 976.994 784.539 977.215 784.419L976.977 783.982L977.215 784.419C979.258 783.309 980.658 783.392 981.643 784.017C982.675 784.671 983.409 786.012 983.882 787.758C984.824 791.232 984.617 795.881 984.184 798.156L980.219 818.973L980.217 818.983L980.216 818.993C979.389 824.497 977.917 829.885 975.83 835.045C974.344 838.331 972.362 841.369 969.954 844.054Z" stroke="white"/>
<mask id="path-13-inside-4_2_13" fill="white">
<path d="M1399.67 942.988C1396.87 941.896 1394.15 940.603 1391.54 939.12C1388.92 946.32 1387.53 953.908 1387.42 961.569L1406.57 950.735C1409.45 949.105 1412.71 946.84 1412.65 943.531C1412.68 943.123 1412.59 942.715 1412.41 942.35C1412.22 941.986 1411.94 941.678 1411.59 941.459C1411.17 941.289 1410.7 941.234 1410.25 941.302C1407.41 941.539 1404.82 942.936 1402.14 943.907C1399.47 944.878 1396.34 945.392 1393.88 943.95"/>
</mask>
<path d="M1391.54 939.12L1392.04 938.25L1391.01 937.665L1390.6 938.778L1391.54 939.12ZM1387.42 961.569L1386.42 961.555L1386.4 963.298L1387.91 962.439L1387.42 961.569ZM1406.57 950.735L1406.08 949.864L1406.08 949.864L1406.57 950.735ZM1412.65 943.531L1411.65 943.468L1411.65 943.509L1411.65 943.55L1412.65 943.531ZM1411.59 941.459L1412.13 940.614L1412.05 940.565L1411.97 940.531L1411.59 941.459ZM1410.25 941.302L1410.33 942.299L1410.37 942.296L1410.4 942.291L1410.25 941.302ZM1400.03 942.056C1397.28 940.982 1394.61 939.71 1392.04 938.25L1391.05 939.989C1393.7 941.496 1396.46 942.81 1399.3 943.919L1400.03 942.056ZM1390.6 938.778C1387.94 946.083 1386.53 953.782 1386.42 961.555L1388.42 961.583C1388.53 954.034 1389.9 946.556 1392.48 939.461L1390.6 938.778ZM1387.91 962.439L1407.06 951.605L1406.08 949.864L1386.93 960.699L1387.91 962.439ZM1407.06 951.605C1408.52 950.78 1410.16 949.752 1411.43 948.465C1412.7 947.172 1413.69 945.533 1413.65 943.513L1411.65 943.55C1411.68 944.839 1411.06 945.987 1410 947.06C1408.94 948.141 1407.5 949.059 1406.08 949.864L1407.06 951.605ZM1413.65 943.595C1413.69 943.007 1413.57 942.42 1413.3 941.895L1411.52 942.805C1411.62 943.01 1411.67 943.239 1411.65 943.468L1413.65 943.595ZM1413.3 941.895C1413.03 941.371 1412.62 940.928 1412.13 940.614L1411.06 942.305C1411.25 942.428 1411.41 942.601 1411.52 942.805L1413.3 941.895ZM1411.97 940.531C1411.38 940.295 1410.73 940.219 1410.1 940.313L1410.4 942.291C1410.68 942.25 1410.96 942.283 1411.22 942.388L1411.97 940.531ZM1410.17 940.305C1408.61 940.435 1407.16 940.879 1405.79 941.392C1405.1 941.649 1404.42 941.928 1403.76 942.198C1403.1 942.469 1402.45 942.732 1401.8 942.967L1402.49 944.847C1403.18 944.597 1403.86 944.32 1404.52 944.049C1405.19 943.776 1405.84 943.509 1406.49 943.265C1407.79 942.778 1409.05 942.406 1410.33 942.299L1410.17 940.305ZM1401.8 942.967C1399.18 943.917 1396.43 944.29 1394.38 943.088L1393.37 944.813C1396.24 946.494 1399.75 945.839 1402.49 944.847L1401.8 942.967Z" fill="white" mask="url(#path-13-inside-4_2_13)"/>
<path d="M1500.8 949.902L1500.81 949.899L1500.82 949.896C1501.86 949.56 1503.13 948.905 1504.48 948.153C1505.04 947.841 1505.62 947.514 1506.2 947.182C1507.05 946.697 1507.92 946.201 1508.8 945.723C1510.28 944.922 1511.74 944.204 1513.08 943.744C1514.43 943.28 1515.59 943.105 1516.48 943.313L1516.6 942.826L1516.48 943.313C1517.68 943.592 1518.53 944.107 1519.09 944.744C1519.65 945.381 1519.95 946.17 1520.01 947.041C1520.13 948.795 1519.27 950.88 1517.58 952.553C1515.97 953.954 1514.12 955.058 1512.12 955.812L1512.11 955.818L1512.09 955.824C1506.45 958.351 1500.67 960.995 1495.85 965.015L1495.84 965.027L1495.83 965.039C1493.88 966.908 1491.77 968.587 1489.51 970.055C1485.58 972.214 1480.83 972.184 1476.17 972.081L1476.15 972.08L1476.12 972.082C1474.47 972.206 1472.82 971.837 1471.37 971.023C1470.78 970.591 1470.35 969.874 1470.21 969.14C1470.07 968.436 1470.21 967.79 1470.65 967.358C1475.07 965.868 1479.66 964.301 1483.49 961.451C1485.1 960.255 1486.55 958.844 1487.97 957.464C1488.33 957.117 1488.69 956.772 1489.04 956.432C1490.83 954.731 1492.62 953.157 1494.75 952.074C1496.71 951.193 1498.73 950.466 1500.8 949.902Z" stroke="white"/>
<mask id="path-16-inside-5_2_13" fill="white">
<path d="M1545.3 920.268C1545.53 917.859 1545.21 915.429 1544.36 913.162C1543.52 910.895 1542.16 908.85 1540.41 907.181C1540.36 912.001 1540.21 917.136 1537.5 921.122C1535.57 923.961 1532.54 925.88 1530.43 928.585C1528.31 931.29 1527.37 935.578 1529.85 937.951C1531.44 939.159 1533.37 939.824 1535.37 939.85C1540.31 940.432 1546.03 940.756 1549.49 937.186C1551.38 935.238 1552.3 932.352 1554.61 930.92C1555.47 930.559 1556.24 930.01 1556.86 929.313C1557.81 927.798 1556.29 925.803 1554.59 925.257C1552.89 924.712 1551.01 924.968 1549.3 924.45C1547.59 923.932 1546.01 922.006 1546.89 920.448"/>
</mask>
<path d="M1540.41 907.181L1541.1 906.457L1539.44 904.872L1539.41 907.17L1540.41 907.181ZM1537.5 921.122L1538.33 921.684L1538.33 921.684L1537.5 921.122ZM1529.85 937.951L1529.16 938.674L1529.2 938.713L1529.25 938.747L1529.85 937.951ZM1535.37 939.85L1535.48 938.857L1535.43 938.851L1535.38 938.85L1535.37 939.85ZM1549.49 937.186L1550.21 937.883L1550.21 937.883L1549.49 937.186ZM1554.61 930.92L1554.22 929.998L1554.15 930.028L1554.08 930.07L1554.61 930.92ZM1556.86 929.313L1557.6 929.977L1557.66 929.915L1557.7 929.845L1556.86 929.313ZM1546.29 920.363C1546.54 917.803 1546.2 915.221 1545.3 912.812L1543.43 913.512C1544.22 915.637 1544.52 917.915 1544.3 920.173L1546.29 920.363ZM1545.3 912.812C1544.4 910.403 1542.96 908.23 1541.1 906.457L1539.72 907.906C1541.37 909.47 1542.63 911.387 1543.43 913.512L1545.3 912.812ZM1539.41 907.17C1539.36 912.044 1539.19 916.863 1536.68 920.559L1538.33 921.684C1541.24 917.409 1541.36 911.959 1541.41 907.192L1539.41 907.17ZM1536.68 920.559C1535.78 921.875 1534.62 922.996 1533.35 924.171C1532.11 925.323 1530.76 926.539 1529.64 927.969L1531.21 929.201C1532.21 927.925 1533.43 926.83 1534.71 925.637C1535.97 924.466 1537.29 923.208 1538.33 921.684L1536.68 920.559ZM1529.64 927.969C1528.48 929.453 1527.63 931.373 1527.42 933.282C1527.21 935.198 1527.63 937.211 1529.16 938.674L1530.54 937.229C1529.59 936.318 1529.24 935 1529.41 933.502C1529.58 931.998 1530.26 930.422 1531.21 929.201L1529.64 927.969ZM1529.25 938.747C1531 940.084 1533.14 940.821 1535.35 940.85L1535.38 938.85C1533.6 938.827 1531.87 938.233 1530.46 937.155L1529.25 938.747ZM1535.25 940.843C1537.73 941.135 1540.49 941.375 1543.1 941.068C1545.71 940.759 1548.26 939.889 1550.21 937.883L1548.77 936.49C1547.26 938.053 1545.21 938.805 1542.86 939.082C1540.51 939.359 1537.94 939.147 1535.48 938.857L1535.25 940.843ZM1550.21 937.883C1551.24 936.82 1552.02 935.486 1552.73 934.41C1553.48 933.28 1554.18 932.362 1555.14 931.769L1554.08 930.07C1552.73 930.909 1551.82 932.151 1551.06 933.309C1550.26 934.52 1549.63 935.604 1548.77 936.49L1550.21 937.883ZM1555 931.842C1555.99 931.423 1556.88 930.785 1557.6 929.977L1556.11 928.649C1555.59 929.234 1554.94 929.695 1554.22 929.998L1555 931.842ZM1557.7 929.845C1558.45 928.657 1558.17 927.351 1557.57 926.392C1556.97 925.439 1555.98 924.651 1554.9 924.305L1554.29 926.209C1554.91 926.408 1555.52 926.891 1555.87 927.451C1556.22 928.005 1556.21 928.454 1556.01 928.78L1557.7 929.845ZM1554.9 924.305C1553.91 923.991 1552.9 923.914 1552.02 923.846C1551.1 923.776 1550.32 923.715 1549.59 923.493L1549.01 925.407C1549.99 925.703 1551 925.773 1551.87 925.84C1552.78 925.91 1553.56 925.978 1554.29 926.209L1554.9 924.305ZM1549.59 923.493C1548.95 923.301 1548.32 922.833 1547.95 922.282C1547.59 921.737 1547.57 921.282 1547.76 920.939L1546.02 919.957C1545.34 921.172 1545.66 922.459 1546.29 923.396C1546.92 924.327 1547.93 925.08 1549.01 925.407L1549.59 923.493Z" fill="white" mask="url(#path-16-inside-5_2_13)"/>
<path d="M1468.82 767.096C1471.62 770.984 1475.48 773.96 1479.94 775.669C1478.05 776.29 1476 776.187 1473.97 775.6C1471.52 774.89 1469.12 773.479 1467.12 771.845C1466.11 771.023 1465.13 770.14 1464.15 769.241C1463.99 769.089 1463.82 768.937 1463.66 768.784C1462.85 768.035 1462.03 767.281 1461.19 766.558C1459.18 764.813 1457.03 763.211 1454.51 762.201C1451.21 760.88 1447.73 760.738 1444.25 760.971C1442.52 761.087 1440.77 761.296 1439.04 761.504L1439.02 761.507C1437.28 761.716 1435.55 761.923 1433.85 762.035C1428.61 762.379 1422.88 761.433 1419.89 757.412L1419.54 757.673L1419.89 757.412C1419.16 756.426 1418.63 755.308 1418.16 754.12C1417.97 753.652 1417.79 753.159 1417.6 752.659C1417.33 751.927 1417.05 751.181 1416.75 750.478L1416.75 750.477C1414.47 745.214 1410.37 740.949 1405.2 738.464L1405.2 738.463C1403.63 737.715 1401.99 737.146 1400.37 736.588C1400.33 736.574 1400.3 736.561 1400.26 736.548C1398.6 735.973 1396.97 735.405 1395.43 734.653C1392.58 733.26 1389.99 731.033 1389.16 728.166C1393.72 728.934 1398.33 728.732 1402.91 728.349C1404.01 728.257 1405.11 728.155 1406.2 728.054C1409.94 727.706 1413.65 727.361 1417.36 727.431C1427.86 727.657 1438.02 731.207 1446.38 737.57C1446.98 738.033 1447.59 738.52 1448.21 739.014C1449.37 739.942 1450.55 740.889 1451.77 741.723C1453.65 743.012 1455.67 744.085 1457.97 744.507L1457.98 744.51L1458 744.512C1460.7 744.84 1463.44 744.679 1466.09 744.038C1466.82 743.904 1467.8 743.645 1468.88 743.357C1469.3 743.248 1469.73 743.135 1470.17 743.022C1471.79 742.605 1473.56 742.192 1475.22 742.005C1476.9 741.816 1478.39 741.866 1479.47 742.316C1480.01 742.537 1480.44 742.851 1480.75 743.275C1481.06 743.7 1481.28 744.263 1481.35 745.016C1481.51 746.805 1480.88 748.129 1479.78 749.138C1478.65 750.167 1477.01 750.88 1475.15 751.353C1471.43 752.298 1467.03 752.237 1464.76 752.028L1464.22 751.979L1464.21 752.521C1464.15 757.746 1465.77 762.853 1468.82 767.096Z" stroke="white"/>
<path d="M1392.71 781.562L1392.73 781.563L1392.75 781.562C1394.22 781.521 1395.68 781.299 1397.1 781.082C1397.24 781.061 1397.37 781.041 1397.51 781.02C1399.07 780.784 1400.59 780.575 1402.11 780.61C1403.62 780.646 1405.19 781.018 1406.5 781.729C1407.8 782.438 1408.8 783.468 1409.23 784.815C1409.86 786.777 1409.19 788.686 1408.15 790.769C1407.93 791.19 1407.7 791.633 1407.46 792.082C1407.14 792.698 1406.81 793.328 1406.52 793.939C1406 795.025 1405.54 796.158 1405.33 797.341C1404.35 802.71 1407.06 806.874 1410.82 808.582C1414.59 810.292 1419.4 809.525 1422.52 805.151C1423.55 803.701 1424.45 801.18 1425.33 798.274C1425.76 796.846 1426.19 795.306 1426.64 793.726L1426.67 793.601C1427.13 791.975 1427.6 790.309 1428.09 788.672C1429.09 785.391 1430.17 782.255 1431.46 779.828C1432.76 777.374 1434.18 775.776 1435.79 775.354C1436.83 775.081 1437.85 775.478 1438.7 776.304C1439.56 777.132 1440.2 778.344 1440.45 779.528C1440.65 780.512 1440.71 781.519 1440.77 782.566C1440.79 782.829 1440.8 783.095 1440.82 783.364C1440.91 784.677 1441.06 786.033 1441.58 787.318C1442.41 789.362 1443.98 790.832 1445.61 792.163C1445.95 792.442 1446.3 792.714 1446.64 792.984C1447.95 794.026 1449.22 795.035 1450.22 796.27C1452.66 799.289 1453.15 803.059 1453.16 807.17C1453.17 808.401 1453.13 809.637 1453.09 810.886C1453.06 811.734 1453.03 812.588 1453.02 813.452C1452.99 815.567 1453.03 817.692 1453.36 819.743C1454.22 825.079 1456.98 829.635 1460.06 834.006C1460.79 835.04 1461.53 836.063 1462.28 837.083C1464.7 840.401 1467.09 843.695 1468.85 847.291C1476.55 863.07 1469 884.503 1453.1 891.962C1452.62 892.186 1452.12 892.412 1451.62 892.643C1449.68 893.525 1447.59 894.476 1445.83 895.66C1443.61 897.163 1441.83 899.112 1441.57 901.903C1441.46 903.03 1441.64 904.148 1441.92 905.226C1442.12 905.998 1442.38 906.777 1442.64 907.53C1442.73 907.82 1442.83 908.106 1442.92 908.387C1443.59 910.463 1444 912.286 1443.14 913.952C1442.17 915.829 1440.27 916.44 1437.85 916.716C1437.09 916.803 1436.31 916.855 1435.51 916.907C1435.04 916.938 1434.56 916.969 1434.08 917.008C1432.8 917.113 1431.5 917.272 1430.31 917.639C1428.21 918.283 1426.53 919.564 1425.06 921.113C1423.69 922.565 1422.48 924.279 1421.31 925.95C1421.23 926.054 1421.16 926.158 1421.09 926.261C1418.55 929.854 1416.13 933.124 1412.29 933.908C1408.71 934.64 1405.38 932.892 1401.83 930.897C1401.68 930.81 1401.52 930.723 1401.37 930.635C1398.04 928.753 1394.51 926.761 1390.65 927.07C1390.05 927.118 1389.46 927.219 1388.88 927.325C1388.76 927.347 1388.65 927.368 1388.53 927.39C1388.07 927.476 1387.62 927.559 1387.18 927.621C1386.07 927.775 1385.07 927.778 1384.16 927.367C1383.05 926.866 1382.35 925.891 1381.86 924.644C1381.4 923.487 1381.15 922.163 1380.9 920.874C1380.88 920.766 1380.86 920.658 1380.84 920.551C1380.14 916.017 1378.03 911.817 1374.82 908.543L1374.82 908.537C1373.16 906.905 1371.09 905.752 1368.84 905.203C1366.78 904.702 1364.63 904.72 1362.58 905.252C1361.89 899.993 1357.62 895.688 1352.75 893.76C1347.7 891.759 1342.09 891.905 1336.8 892.63L1336.8 892.63C1326.31 894.078 1316.24 897.713 1307.25 903.299L1307.23 903.307L1307.22 903.316C1304.93 904.943 1302.45 906.268 1299.82 907.26C1296.27 908.348 1292.43 907.893 1288.6 907.404L1269.16 904.922C1275.39 888.186 1280.08 870.914 1283.16 853.322L1282.71 853.244L1283.16 853.322C1283.72 850.098 1284.31 846.76 1285.37 843.713C1286.44 840.672 1287.97 837.96 1290.41 835.972C1292.25 834.47 1294.42 833.536 1296.76 832.838C1298.4 832.35 1300.08 831.985 1301.78 831.618C1302.51 831.458 1303.26 831.298 1303.99 831.127L1304 831.126C1317.81 827.896 1330.33 820.592 1339.94 810.161L1339.95 810.161C1341.09 808.911 1342.2 807.622 1343.31 806.333C1345.11 804.252 1346.9 802.173 1348.83 800.275C1351.93 797.224 1355.31 794.739 1359.41 793.66C1360.96 793.254 1362.55 793.068 1364.19 792.878C1364.48 792.844 1364.77 792.81 1365.06 792.775C1366.98 792.543 1368.94 792.251 1370.79 791.518C1373.47 790.46 1375.73 788.559 1377.9 786.734C1378.2 786.487 1378.49 786.241 1378.78 785.998C1381.26 783.945 1383.69 782.141 1386.65 781.647C1388.67 781.483 1390.69 781.455 1392.71 781.562Z" stroke="white"/>
<path d="M1354.87 765.002C1347.24 765.418 1339.64 764.459 1332.02 763.09C1328.9 762.529 1325.77 761.898 1322.63 761.265C1317.21 760.172 1311.76 759.075 1306.32 758.33C1291.44 756.292 1276.35 756.861 1261.4 757.443C1260.75 756.747 1260.65 755.733 1260.99 754.702C1261.36 753.597 1262.22 752.591 1263.26 752.153C1265.47 751.23 1268.03 751.854 1270.55 752.563C1275.37 753.912 1279.62 753.937 1283.85 753.731C1284.74 753.687 1285.64 753.634 1286.53 753.58C1289.88 753.378 1293.27 753.174 1297.04 753.485C1301.62 753.945 1306.18 754.65 1310.69 755.594L1310.69 755.594L1310.7 755.596L1327.58 758.821L1327.58 758.821L1327.59 758.823C1336.79 760.394 1345.89 762.456 1354.87 765.002Z" stroke="white"/>
<path d="M1274.71 714.702L1274.7 714.68L1274.68 714.661C1273.49 713.462 1272.58 712.014 1272.02 710.422C1271.78 709.688 1271.78 708.897 1272.03 708.167C1272.28 707.443 1272.75 706.817 1273.38 706.381C1273.97 706.066 1274.65 705.998 1275.42 706.052C1275.92 706.087 1276.41 706.166 1276.91 706.249C1277.22 706.299 1277.53 706.351 1277.86 706.394C1278.73 706.508 1279.73 706.462 1280.59 706.161C1281.46 705.858 1282.25 705.272 1282.54 704.279C1282.71 703.672 1282.64 703.02 1282.59 702.49C1282.58 702.419 1282.57 702.349 1282.57 702.282C1282.51 701.666 1282.51 701.226 1282.73 700.87C1282.94 700.511 1283.32 700.312 1283.87 700.225C1284.42 700.137 1285.07 700.179 1285.7 700.231C1291.53 700.719 1295.25 698.999 1298.28 696.243C1299.78 694.879 1301.1 693.267 1302.43 691.574C1302.71 691.215 1302.99 690.853 1303.27 690.489C1304.33 689.125 1305.41 687.727 1306.63 686.349C1308.08 684.7 1309.73 683.238 1311.47 682.543C1313.18 681.865 1315 681.911 1316.89 683.313C1319.11 684.947 1319.55 687.176 1319.37 689.681C1319.28 690.942 1319.04 692.245 1318.79 693.556L1318.79 693.579C1318.54 694.87 1318.3 696.175 1318.22 697.395C1318.16 698.445 1318.2 699.513 1318.27 700.563C1318.28 700.852 1318.3 701.139 1318.32 701.424C1318.37 702.183 1318.42 702.93 1318.44 703.671C1318.49 705.704 1318.3 707.568 1317.3 709.177C1316.81 709.977 1316.13 710.681 1315.35 711.358C1314.86 711.79 1314.35 712.194 1313.83 712.604C1313.52 712.844 1313.22 713.087 1312.91 713.338C1311.29 714.658 1309.74 716.162 1309.5 718.393C1309.36 719.646 1309.7 720.814 1310.19 721.893C1310.55 722.684 1311.01 723.464 1311.45 724.203C1311.6 724.46 1311.75 724.712 1311.9 724.958C1312.44 725.912 1312.9 726.995 1313.07 728.038C1313.23 729.07 1313.11 730.02 1312.55 730.789C1311.86 731.565 1310.99 732.155 1310.01 732.507L1309.99 732.514L1309.98 732.522L1304.08 735.216C1303.25 735.597 1302.37 735.954 1301.52 736.103C1300.69 736.249 1299.94 736.186 1299.3 735.797C1298.48 735.102 1297.83 734.224 1297.41 733.234L1297.4 733.205L1297.38 733.177C1295.69 730.295 1293.03 728.399 1290.21 726.76C1289.29 726.227 1288.36 725.724 1287.44 725.224C1285.49 724.168 1283.57 723.127 1281.84 721.849C1279.2 719.742 1276.81 717.345 1274.71 714.702Z" stroke="white"/>
<path d="M1321.37 620.881C1322.02 618.645 1323.37 616.672 1325.27 615.513C1325.31 616.238 1325.31 617.051 1325.3 617.924C1325.29 618.256 1325.29 618.597 1325.28 618.945C1325.26 619.823 1325.24 620.74 1325.26 621.646C1325.29 624.155 1325.53 626.761 1326.73 628.581C1326.92 628.871 1327.27 629.18 1327.68 629.481C1328.1 629.791 1328.63 630.128 1329.22 630.469C1330.41 631.151 1331.88 631.864 1333.34 632.429C1334.79 632.99 1336.26 633.42 1337.41 633.509C1337.88 633.545 1338.33 633.528 1338.72 633.42C1338.5 635.331 1338.43 637.392 1338.75 639.263C1339.17 641.606 1340.23 643.729 1342.47 644.825C1342.95 645.062 1343.48 645.244 1343.99 645.41C1344.08 645.441 1344.17 645.471 1344.26 645.5C1344.68 645.636 1345.07 645.764 1345.45 645.914C1346.35 646.276 1346.97 646.703 1347.23 647.42C1347.4 648.298 1347.31 649.207 1346.97 650.033L1346.96 650.061L1346.95 650.09C1345.9 653.824 1345.77 657.758 1346.57 661.553C1346.8 662.913 1347.33 664.204 1348.12 665.329L1348.13 665.339L1348.14 665.349C1348.93 666.355 1349.99 667.028 1351.01 667.629C1351.16 667.715 1351.3 667.8 1351.45 667.883C1352.33 668.397 1353.16 668.881 1353.87 669.52C1355.08 670.7 1355.79 672.307 1355.84 674.001C1355.89 675.69 1355.28 677.331 1354.15 678.579C1353.53 679.131 1352.81 679.55 1352.03 679.812C1351.24 680.076 1350.4 680.172 1349.58 680.096C1348.75 680.02 1347.94 679.773 1347.21 679.369C1346.49 678.968 1345.86 678.422 1345.35 677.766C1344.01 675.748 1344.16 673.311 1344.51 670.6C1344.55 670.316 1344.59 670.028 1344.63 669.737C1344.96 667.328 1345.31 664.747 1344.55 662.386C1343.76 659.943 1341.96 658.178 1340.11 656.558C1339.81 656.299 1339.51 656.043 1339.22 655.789C1337.63 654.43 1336.1 653.115 1335.03 651.473C1333.79 649.585 1333.23 647.37 1332.68 645.045C1332.65 644.949 1332.63 644.853 1332.61 644.757C1332.08 642.548 1331.54 640.251 1330.35 638.228C1329.26 636.365 1327.7 634.854 1326.2 633.402C1326.13 633.337 1326.07 633.272 1326 633.207C1324.42 631.675 1322.93 630.189 1321.96 628.344C1320.8 626.118 1320.65 623.365 1321.37 620.881Z" stroke="white"/>
<path d="M1206.68 685.129L1206.68 685.129C1207.81 684.563 1209.03 684.747 1210.27 685.391C1211.51 686.037 1212.69 687.116 1213.66 688.197C1214.92 689.609 1216.23 691.276 1217.59 693.045C1217.72 693.207 1217.85 693.371 1217.97 693.534C1219.22 695.151 1220.52 696.835 1221.88 698.452C1224.87 702.005 1228.18 705.306 1231.94 706.917L1232.14 706.458L1231.94 706.917C1232.93 707.344 1233.75 707.543 1234.47 707.603C1235.2 707.663 1235.8 707.582 1236.36 707.474C1236.53 707.442 1236.69 707.409 1236.84 707.376C1237.75 707.187 1238.57 707.013 1239.84 707.283C1241.6 707.659 1242.95 708.853 1244.25 710.13C1244.38 710.264 1244.52 710.4 1244.66 710.535C1245.15 711.031 1245.65 711.525 1246.14 711.943C1246.28 712.057 1246.41 712.167 1246.55 712.272C1246 712.48 1245.5 712.827 1245.09 713.25C1244.23 714.126 1243.67 715.386 1243.68 716.64L1243.68 716.666L1243.68 716.691C1243.94 719.022 1244.98 721.198 1246.63 722.86C1248.35 724.932 1250.21 726.878 1252.08 728.792C1252.5 729.224 1252.92 729.654 1253.35 730.083C1254.8 731.566 1256.26 733.042 1257.66 734.566C1258.41 735.388 1259.15 736.268 1259.67 737.202C1260.19 738.132 1260.47 739.086 1260.35 740.067C1260.22 741.243 1259.49 742.238 1258.44 742.92C1257.39 743.601 1256.07 743.943 1254.83 743.833C1252.23 743.379 1249.85 742.088 1248.05 740.157L1248.04 740.144L1248.02 740.132C1243.41 735.834 1239.96 730.53 1236.58 725.077C1236.28 724.582 1235.97 724.086 1235.66 723.59C1232.6 718.63 1229.51 713.617 1225.57 709.289C1222.05 705.42 1217.92 702.17 1213.82 698.949C1212.29 697.749 1210.77 696.554 1209.29 695.332L1209.28 695.32L1209.26 695.309C1207.49 694.059 1206.06 692.368 1205.14 690.402C1204.79 689.448 1204.74 688.337 1205 687.357C1205.26 686.372 1205.83 685.557 1206.68 685.129ZM1206.46 684.682L1206.46 684.687L1206.46 684.682Z" stroke="white"/>
<path d="M1385.07 473.689L1385.1 473.697L1385.12 473.701C1386.12 473.885 1387.05 473.789 1387.89 473.623C1388.3 473.541 1388.7 473.441 1389.07 473.348L1389.08 473.345C1389.46 473.25 1389.81 473.163 1390.14 473.102C1390.8 472.978 1391.31 472.977 1391.72 473.168C1392.12 473.353 1392.53 473.766 1392.91 474.701C1393.34 475.764 1393.06 477.159 1392.34 478.512C1391.62 479.853 1390.54 481.02 1389.61 481.586C1386.1 483.705 1381.64 483.273 1377.34 482.724L1376.36 482.599L1376.84 483.463C1382.44 493.522 1386.05 504.558 1387.5 515.977C1387.79 518.292 1387.87 520.65 1386.58 522.277C1385.56 523.362 1384.24 524.124 1382.78 524.47L1382.77 524.474L1382.75 524.479C1378.84 525.716 1374.75 526.261 1370.65 526.09C1369.44 526.039 1367.99 526.035 1366.74 526.354C1365.47 526.675 1364.31 527.353 1363.86 528.734C1363.62 529.493 1363.68 530.328 1363.73 531.035C1363.74 531.149 1363.75 531.259 1363.76 531.365C1363.81 532.195 1363.78 532.812 1363.41 533.29L1363.8 533.585L1363.41 533.29C1363.19 533.59 1362.85 533.795 1362.41 533.982C1362.22 534.064 1362.02 534.137 1361.81 534.215C1361.77 534.227 1361.74 534.238 1361.71 534.25C1361.47 534.34 1361.21 534.438 1360.96 534.554C1358.27 535.804 1357.52 538.507 1357.08 541.256C1356.98 541.86 1356.9 542.454 1356.82 543.045C1356.71 543.854 1356.6 544.658 1356.45 545.472C1356.2 546.852 1355.84 548.14 1355.24 549.243C1354.89 549.878 1354.33 550.47 1353.71 550.815C1353.12 551.151 1352.52 551.226 1352.01 550.978C1351.6 550.684 1351.27 550.293 1351.06 549.84C1350.83 549.376 1350.73 548.863 1350.77 548.35L1350.77 548.321L1350.77 548.292C1350.71 547.269 1350.77 546.209 1350.86 545.122C1350.89 544.808 1350.92 544.489 1350.94 544.169C1351.02 543.395 1351.09 542.611 1351.12 541.844C1351.23 539.67 1351.07 537.477 1349.78 535.586C1349.5 535.166 1349.16 534.766 1348.83 534.386C1348.8 534.344 1348.76 534.303 1348.73 534.261C1348.44 533.921 1348.16 533.596 1347.91 533.264C1347.36 532.526 1347.05 531.85 1347.14 531.11C1347.31 530.396 1347.66 529.738 1348.16 529.204L1348.17 529.189L1348.19 529.174C1353.37 522.683 1359.75 517.255 1366.99 513.192C1368.87 512.326 1370.56 511.107 1371.98 509.602L1372 509.577L1372.02 509.549C1373.04 508.112 1373.76 506.486 1374.14 504.765C1375.64 499.389 1376.45 493.142 1373.5 488.169C1372.81 487.005 1371.91 485.914 1371.04 484.864C1370.68 484.427 1370.33 483.997 1370 483.572C1368.85 482.093 1367.93 480.623 1367.71 478.901C1367.38 476.354 1368.84 474.126 1371.1 472.702C1373.37 471.281 1376.35 470.729 1378.89 471.483C1380.91 472.329 1382.97 473.065 1385.07 473.689Z" stroke="white"/>
<path d="M773.344 509.073C775.675 507.986 778.152 507.245 780.698 506.875C783.432 506.71 786.144 507.455 788.41 508.995C790.68 510.537 792.374 512.789 793.226 515.397C793.833 517.432 793.899 519.591 793.966 521.82C793.974 522.079 793.982 522.339 793.991 522.6C794.074 525.075 794.237 527.615 795.314 529.943C797.96 535.663 804.11 537.138 810.324 538.319C810.815 538.412 811.308 538.504 811.8 538.596C814.461 539.09 817.114 539.584 819.578 540.361C822.489 541.279 825.081 542.578 827.041 544.694C827.395 545.075 827.733 545.488 828.084 545.916L828.09 545.923C828.439 546.348 828.8 546.789 829.183 547.2C829.948 548.023 830.837 548.774 831.995 549.125C833.506 549.583 835.033 549.177 836.275 548.336C837.515 547.497 838.514 546.198 838.998 544.776C839.864 542.23 839.487 539.489 839.029 536.96C852.231 538.994 866.525 540.964 879.887 540.234C880.469 540.202 881.05 540.166 881.63 540.13C885.823 539.869 889.963 539.611 893.746 541.035C897.54 542.464 900.359 545.322 902.516 548.857C904.559 552.203 905.993 556.128 907.092 559.952L901.096 559.752L900.52 559.733L900.582 560.306C900.729 561.653 901.307 562.915 902.231 563.905C915.641 581.639 927.337 600.607 937.158 620.554C938.05 622.365 939.208 624.275 940.382 626.209L940.514 626.426C941.738 628.443 942.971 630.49 943.966 632.527C945.967 636.623 946.92 640.515 945.048 643.905C944.238 645.373 944.398 647.044 945.087 648.472C945.775 649.896 947.011 651.136 948.465 651.793C951.299 653.075 954.542 652.7 957.441 652.335L980.98 649.367L981.007 649.364L981.034 649.357C982.646 648.969 984.342 649.143 985.841 649.85C986.994 650.597 987.506 651.853 987.592 653.363C987.679 654.887 987.324 656.598 986.825 658.091C982.033 672.433 972.737 684.816 963.435 697.207C962.443 698.529 961.451 699.851 960.464 701.175C950.249 714.882 940.622 728.845 937.925 745.6L937.924 745.608L937.923 745.617C937.188 751.469 936.753 757.356 936.62 763.253C936.082 772.903 934.671 782.484 932.405 791.879L932.403 791.888L932.402 791.897C931.611 795.788 930.229 799.535 928.304 803.008C926.234 806.417 923.275 809.236 920.278 812.089C919.744 812.598 919.209 813.107 918.677 813.622C915.189 816.997 911.874 820.563 910.378 825.252C909.546 827.86 909.328 830.661 909.332 833.478C909.335 835.172 909.419 836.906 909.502 838.613C909.556 839.724 909.609 840.822 909.639 841.89C909.793 847.395 909.335 852.291 905.53 855.647C903.475 857.459 900.759 858.406 897.968 859.379C897.54 859.529 897.111 859.678 896.682 859.832C893.511 860.966 890.366 862.314 888.593 865.307C887.087 867.848 887.092 870.724 887.326 873.559C887.377 874.169 887.438 874.777 887.498 875.38C887.723 877.627 887.942 879.821 887.608 881.927C886.571 888.478 880.384 892.962 874.204 896.028C861.096 902.515 846.638 905.807 832.014 905.634L831.996 905.633L831.979 905.634C829.633 905.771 827.291 905.304 825.178 904.277C822.851 902.911 821.638 900.589 820.866 897.828C820.479 896.446 820.207 894.972 819.958 893.477C819.9 893.127 819.843 892.775 819.785 892.423C819.6 891.281 819.413 890.136 819.187 889.042C817.885 882.752 814.624 877.168 811.39 871.671L811.284 871.491C808.07 866.03 804.903 860.648 803.551 854.631C802.392 849.476 802.655 844.042 802.919 838.593C802.984 837.251 803.049 835.908 803.093 834.568C803.31 827.931 803 821.396 799.385 815.746C803.886 807.118 808.53 797.901 808.368 788.016C808.235 779.919 804.897 772.349 801.619 764.917C801.463 764.562 801.307 764.208 801.151 763.854C797.713 756.038 794.511 748.35 795.058 740.146C795.202 737.989 795.608 735.859 796.036 733.698C796.063 733.563 796.09 733.428 796.116 733.293C796.518 731.273 796.925 729.223 797.123 727.144L797.123 727.142C797.776 720.058 795.999 712.963 792.087 707.022L792.086 707.02C789.513 703.14 785.336 699.457 780.466 699.843C779.695 699.904 778.928 700.069 778.202 700.226C778.032 700.262 777.865 700.298 777.701 700.332C776.81 700.517 775.973 700.653 775.14 700.585C773.211 700.427 771.706 699.294 770.306 697.721C769.607 696.936 768.949 696.059 768.284 695.163L768.158 694.993C767.539 694.157 766.91 693.308 766.249 692.537C763.232 689.017 759.177 686.964 754.776 685.698C750.379 684.433 745.601 683.945 741.109 683.577L690.047 679.398L690.023 679.396L689.999 679.396C688.696 679.416 687.416 679.051 686.32 678.346C685.5 677.674 685.114 676.694 684.953 675.52C684.811 674.485 684.85 673.364 684.89 672.254C684.896 672.084 684.902 671.913 684.907 671.743L684.907 671.742C685.086 665.411 683.073 659.212 679.207 654.195L679.206 654.194C677.736 652.299 676.008 650.59 674.311 648.912C673.834 648.44 673.359 647.97 672.893 647.5C670.755 645.34 668.785 643.142 667.465 640.504C665.349 636.273 665.138 631.356 664.972 626.482L663.689 588.734C663.582 585.611 663.519 582.493 664.81 579.83C666.214 577.415 668.17 575.367 670.518 573.854L670.532 573.845L670.546 573.834C671.624 573.029 672.719 572.232 673.817 571.432C679.083 567.599 684.443 563.697 688.463 558.513C690.781 555.525 692.572 552.219 694.204 548.845C694.858 547.494 695.483 546.141 696.106 544.793C697.048 542.751 697.987 540.719 699.014 538.721C702.408 532.118 707.122 525.765 713.945 523.286C717.011 522.342 720.179 521.766 723.382 521.571L723.394 521.57L723.406 521.568C740.533 519.69 757.324 515.49 773.319 509.085L773.332 509.079L773.344 509.073Z" stroke="white"/>
<mask id="path-26-inside-6_2_13" fill="white">
<path d="M879.871 354.006C883.413 357.768 887.383 361.757 892.508 362.413C901.562 363.571 908.071 354.209 912.215 346.077C912.368 348.151 913.325 350.082 914.88 351.461C916.436 352.84 918.468 353.558 920.544 353.462C922.779 353.086 924.912 352.252 926.809 351.013C944.746 341.21 964.837 336.016 985.278 335.898C985.081 334.349 985.466 332.783 986.356 331.501C987.246 330.219 988.58 329.313 990.1 328.956C994.256 328.132 997.999 331.725 1000 335.458C1002.01 339.19 1003.26 343.517 1006.44 346.31C1009.63 349.104 1015.8 348.983 1017.05 344.937C1018.26 341.053 1014.22 337.74 1010.85 335.451C1007.49 333.161 1003.95 328.922 1006.21 325.543C1023.39 321.741 1040.67 317.925 1058.24 317.169C1061.23 317.274 1064.22 316.76 1067 315.661C1069.68 314.346 1071.81 311.36 1071.09 308.463C1067.25 309.365 1063.24 309.104 1059.55 307.713C1055.87 306.323 1052.68 303.866 1050.39 300.656C1074.78 298.644 1100.71 296.929 1122.33 308.403C1124.92 313.97 1111.7 318.602 1115.24 323.623C1116.37 325.225 1118.63 325.413 1120.58 325.449C1135.6 325.728 1150.71 326.001 1165.55 323.734C1170.98 322.906 1176.46 321.736 1181.91 322.408C1190.98 323.527 1198.74 329.581 1207.67 331.555C1211.3 332.359 1215.38 332.386 1218.44 330.273C1221.5 328.159 1222.82 323.347 1220.31 320.6C1228.72 312.362 1242.67 314.404 1253.75 318.348C1264.84 322.292 1275.35 328.652 1287.08 329.531C1295.5 330.161 1304.03 327.897 1312.35 329.336C1317.57 330.24 1322.44 332.565 1327.54 333.993C1337.2 336.695 1347.42 336.125 1357.45 336.255C1383.04 336.599 1408.35 341.629 1432.13 351.094C1435.22 352.101 1438.06 353.775 1440.43 355.999C1442.64 358.368 1443.77 362.05 1442.29 364.93L1417.71 361.34C1420.03 365.897 1426.02 366.674 1430.88 368.246C1435.75 369.818 1440.79 375.189 1437.87 379.383C1432.6 377.705 1427.82 382.974 1425.16 387.821C1422.5 392.669 1419.25 398.475 1413.73 398.77C1408.78 399.034 1402.8 394.824 1399.58 398.583C1404.03 404.201 1407.85 410.298 1410.95 416.761C1414.13 423.396 1416.4 431.756 1412.1 437.725C1411.42 438.79 1410.39 439.587 1409.19 439.978C1405.68 440.868 1403.39 436.567 1400.87 433.96C1397.7 430.676 1392.89 429.745 1388.59 428.205C1384.29 426.664 1379.76 423.634 1379.42 419.077C1379.21 416.242 1380.71 413.606 1381.81 410.985C1383.66 406.568 1384.47 401.784 1384.18 397.003C1383.94 393.156 1382.86 389.155 1380.1 386.468C1377.33 383.78 1372.56 382.928 1369.6 385.389C1368.22 386.538 1367.11 388.375 1365.31 388.443C1362.13 388.565 1359.7 383.029 1357.14 384.919C1357.44 386.932 1357.02 388.987 1355.96 390.724C1348.34 397.353 1336.63 394.549 1326.8 396.89C1322.13 398.228 1317.66 400.182 1313.5 402.7C1311.94 403.365 1310.62 404.476 1309.7 405.892C1308.47 408.276 1309.82 411.329 1311.98 412.914C1314.28 414.32 1316.85 415.2 1319.53 415.489C1331.51 417.758 1343.66 421.27 1353.12 428.965C1362.58 436.66 1368.78 449.38 1365.79 461.2L1342.16 438.626C1343.06 448.104 1343.57 457.609 1343.69 467.14C1343.85 469.001 1343.59 470.873 1342.94 472.625C1341.26 476.345 1336.69 477.597 1332.69 478.418C1331.58 478.629 1330.53 479.074 1329.6 479.722C1328.67 480.37 1327.89 481.207 1327.31 482.179C1326.72 483.15 1326.35 484.234 1326.22 485.358C1326.09 486.483 1326.19 487.623 1326.53 488.704C1327.95 493.336 1331.5 496.948 1334.74 500.547C1337.99 504.146 1341.18 508.236 1341.6 513.063C1342.03 517.89 1338.39 523.331 1333.55 522.995C1329.89 522.741 1327.17 519.46 1325.61 516.136C1324.04 512.812 1323.11 509.109 1320.76 506.284C1313.66 497.735 1297.69 501.398 1291.32 492.284C1289.7 494.125 1288.57 496.351 1288.05 498.749C1287.53 501.148 1287.63 503.64 1288.34 505.989C1291.31 504.134 1295.36 505.857 1297.59 508.552C1299.81 511.247 1300.86 514.701 1302.61 517.728C1304.97 521.812 1308.72 525.433 1309.05 530.138C1308.97 531.917 1309 533.699 1309.14 535.475C1309.73 538.325 1312.14 540.372 1313.81 542.755C1317.7 548.299 1317.5 555.916 1315 562.206C1312.49 568.497 1307.99 573.754 1303.53 578.85C1295.75 587.751 1287.8 596.6 1278.57 603.992C1275.93 606.102 1273.12 608.176 1271.48 611.125C1269.84 614.074 1269.76 618.213 1272.28 620.456C1270.47 620.546 1267.24 621.434 1265.43 621.524C1264.8 614.287 1264.66 607.016 1265.02 599.76C1257.9 596.342 1250.24 605.496 1251.16 613.34C1252.07 621.183 1257.75 627.478 1261.79 634.264C1264.74 639.226 1266.94 645.013 1265.95 650.703C1264.96 656.393 1259.88 661.643 1254.13 661.141C1244.98 660.343 1241.15 647.205 1232.09 645.702C1231.29 645.514 1230.45 645.597 1229.7 645.938C1228.36 646.677 1228.13 648.477 1228.05 650.009C1227.68 657.531 1227.36 665.352 1230.29 672.287C1234.59 682.433 1245.69 690.954 1243.36 701.723C1230.82 695.894 1224.3 681.831 1221.34 668.322C1218.38 654.814 1217.89 640.633 1212.58 627.862C1208.55 633.027 1200.08 628.758 1196.4 623.339C1192.91 618.203 1190.76 612.261 1187.37 607.055C1183.99 601.849 1178.8 597.187 1172.59 596.901C1166.09 596.601 1160.45 601.064 1155.49 605.282C1151.41 608.75 1147.22 612.354 1144.84 617.148C1141.37 624.124 1142.27 632.348 1142.11 640.138C1141.93 648.559 1140.14 657.444 1134.4 663.609C1128.66 669.774 1118.07 671.922 1111.74 666.366C1108.43 663.465 1106.83 659.131 1105.41 654.971C1098.54 634.918 1092.81 614.489 1088.27 593.785C1087.2 598.511 1083.05 604.601 1079.09 601.818C1078.2 601.069 1077.48 600.141 1076.98 599.094C1069.58 586.561 1055.89 579.044 1042.05 574.537C1028.22 570.03 1013.66 567.927 999.978 562.974C992.31 560.197 984.987 556.549 978.152 552.102C976.409 554.662 975.392 557.646 975.207 560.737C975.022 563.828 975.677 566.912 977.103 569.661C980.138 575.035 987.006 578.144 992.885 576.266C995.923 575.295 998.488 573.186 1001.5 572.144C1004.52 571.103 1008.56 571.614 1009.88 574.518C1011.14 577.298 1009.24 580.661 1010.18 583.564C1011.62 587.984 1018.29 588.325 1020.62 592.348C1022.36 595.341 1020.93 599.315 1018.45 601.731C1015.98 604.146 1012.67 605.471 1009.65 607.152C999.837 612.607 992.861 621.919 984.288 629.164C975.714 636.409 963.618 641.699 953.401 637.052C955.837 624.719 941.146 615.665 938.443 603.388C937.554 599.347 938.015 595.054 936.745 591.117C934.906 585.415 929.848 581.495 925.698 577.174C920.665 571.877 916.744 565.625 914.166 558.788C911.589 551.95 910.407 544.666 910.69 537.364C910.914 532.29 911.846 527.134 910.69 522.188C909.534 517.243 905.44 512.456 900.366 512.68C888.777 513.192 874.178 514.054 868.098 504.175C865.928 500.649 864.984 495.485 868.121 492.784C870.334 490.878 873.601 491.058 876.508 491.344L902.619 493.912C908.726 494.513 915.327 495.009 920.568 491.816C925.808 488.624 928.079 480.149 923.227 476.393C919.681 473.648 913.329 473.797 912.298 469.434C911.44 465.799 915.462 461.676 913.29 458.639C911.732 456.461 908.23 457.065 906.107 458.698C903.985 460.33 902.445 462.718 900.07 463.954C895.904 466.122 890.925 464.058 886.443 462.656C881.96 461.253 875.951 461.134 873.776 465.298C871.345 469.954 875.933 476.055 873.52 480.721C870.329 486.89 859.524 483.378 855.044 488.684C849.902 494.773 858.542 503.852 856.808 511.63C854.595 512.726 852.134 513.23 849.668 513.091C847.201 512.953 844.813 512.177 842.736 510.839C840.693 509.45 839.065 507.533 838.025 505.292C836.985 503.051 836.571 500.57 836.829 498.112C837.258 494.613 839.082 491.042 837.86 487.735C836.872 485.061 834.187 483.47 831.693 482.091L806.319 468.07C803.963 472.44 806.941 477.858 810.666 481.14C814.391 484.422 819.056 486.895 821.503 491.215C823.051 494.207 823.398 497.678 822.473 500.918C821.548 504.158 819.422 506.923 816.527 508.648C816.164 508.899 815.752 509.068 815.318 509.143C814.883 509.219 814.438 509.2 814.012 509.087C813.607 508.849 813.254 508.533 812.974 508.156C812.694 507.779 812.492 507.35 812.381 506.894C807.904 495.437 801.182 484.141 790.436 478.156C779.689 472.171 764.248 473.401 757.2 483.483C755.527 485.878 754.403 488.607 752.945 491.139C745.198 504.59 728.59 510.96 713.074 510.544C711.556 510.627 710.046 510.273 708.724 509.521C706.216 507.789 706.329 504.114 706.713 501.091L708.342 488.26C708.669 485.684 709.143 482.836 711.182 481.227C714.057 478.96 718.204 480.391 721.864 480.338C724.638 480.208 727.304 479.229 729.502 477.533C731.7 475.836 733.323 473.505 734.152 470.855C734.891 468.179 734.886 465.352 734.138 462.679C733.39 460.005 731.926 457.586 729.904 455.683C728.226 454.108 725.974 452.128 726.861 450.004C727.214 449.416 727.692 448.913 728.261 448.53C728.83 448.147 729.476 447.893 730.153 447.786C736.729 445.877 743.677 445.376 750.143 443.123C756.609 440.87 762.879 436.26 764.411 429.586C764.88 427.541 765.094 425.064 766.931 424.05C767.852 423.661 768.842 423.458 769.843 423.455C773.348 422.956 776.54 421.163 778.79 418.429C781.04 415.695 782.184 412.217 781.999 408.681C785.097 406.516 789.439 408.109 792.437 410.412C795.435 412.715 798.081 415.758 801.729 416.75C808.527 418.601 815.096 412.582 822.141 412.554C825.104 412.542 828.171 413.59 830.958 412.585C833.784 411.567 835.471 408.754 837.639 406.676C839.808 404.598 843.613 403.331 845.616 405.569L843.91 392.939C847.345 393.806 850.924 393.929 854.41 393.299C857.895 392.669 861.206 391.3 864.119 389.285L842.08 381.839C841.313 381.647 840.605 381.269 840.02 380.737C838.417 379.012 840.009 376.323 841.312 374.362C844.428 369.67 844.952 361.942 839.826 359.606C836.328 358.012 832.312 359.926 828.954 361.798L812.869 370.767C812.358 373.824 816.097 375.557 818.414 377.616C819.815 378.862 820.807 380.503 821.26 382.324C821.712 384.144 821.603 386.058 820.947 387.815C820.291 389.573 819.119 391.09 817.585 392.169C816.051 393.248 814.226 393.838 812.351 393.861C813.41 395.238 814.146 396.835 814.504 398.535C814.862 400.235 814.834 401.994 814.42 403.682L803.597 404.46C802.383 404.704 801.121 404.458 800.087 403.775C798.93 402.747 799.087 400.945 798.818 399.421C798.171 395.741 794.568 393.162 790.89 392.5C787.213 391.839 783.45 392.687 779.809 393.524C778.263 394.08 776.565 394.041 775.046 393.414C774.175 392.848 773.513 392.013 773.161 391.035C771.565 387.164 773.057 382.614 775.621 379.304C778.185 375.994 781.695 373.574 784.848 370.818C792.386 364.203 797.925 355.612 800.838 346.016C806.796 343.519 812.964 340.128 818.922 337.631C828.107 332.981 838.408 330.985 848.665 331.869L868.842 332.254C874.815 332.368 880.95 332.514 886.474 334.792C891.998 337.069 896.851 341.995 897.233 347.957C897.348 348.632 897.289 349.325 897.063 349.972C896.837 350.618 896.45 351.196 895.939 351.652C895.159 352.078 894.275 352.277 893.388 352.227C887.817 352.423 885.441 353.811 879.871 354.006Z"/>
</mask>
<path d="M879.871 354.006C883.413 357.768 887.383 361.757 892.508 362.413C901.562 363.571 908.071 354.209 912.215 346.077C912.368 348.151 913.325 350.082 914.88 351.461C916.436 352.84 918.468 353.558 920.544 353.462C922.779 353.086 924.912 352.252 926.809 351.013C944.746 341.21 964.837 336.016 985.278 335.898C985.081 334.349 985.466 332.783 986.356 331.501C987.246 330.219 988.58 329.313 990.1 328.956C994.256 328.132 997.999 331.725 1000 335.458C1002.01 339.19 1003.26 343.517 1006.44 346.31C1009.63 349.104 1015.8 348.983 1017.05 344.937C1018.26 341.053 1014.22 337.74 1010.85 335.451C1007.49 333.161 1003.95 328.922 1006.21 325.543C1023.39 321.741 1040.67 317.925 1058.24 317.169C1061.23 317.274 1064.22 316.76 1067 315.661C1069.68 314.346 1071.81 311.36 1071.09 308.463C1067.25 309.365 1063.24 309.104 1059.55 307.713C1055.87 306.323 1052.68 303.866 1050.39 300.656C1074.78 298.644 1100.71 296.929 1122.33 308.403C1124.92 313.97 1111.7 318.602 1115.24 323.623C1116.37 325.225 1118.63 325.413 1120.58 325.449C1135.6 325.728 1150.71 326.001 1165.55 323.734C1170.98 322.906 1176.46 321.736 1181.91 322.408C1190.98 323.527 1198.74 329.581 1207.67 331.555C1211.3 332.359 1215.38 332.386 1218.44 330.273C1221.5 328.159 1222.82 323.347 1220.31 320.6C1228.72 312.362 1242.67 314.404 1253.75 318.348C1264.84 322.292 1275.35 328.652 1287.08 329.531C1295.5 330.161 1304.03 327.897 1312.35 329.336C1317.57 330.24 1322.44 332.565 1327.54 333.993C1337.2 336.695 1347.42 336.125 1357.45 336.255C1383.04 336.599 1408.35 341.629 1432.13 351.094C1435.22 352.101 1438.06 353.775 1440.43 355.999C1442.64 358.368 1443.77 362.05 1442.29 364.93L1417.71 361.34C1420.03 365.897 1426.02 366.674 1430.88 368.246C1435.75 369.818 1440.79 375.189 1437.87 379.383C1432.6 377.705 1427.82 382.974 1425.16 387.821C1422.5 392.669 1419.25 398.475 1413.73 398.77C1408.78 399.034 1402.8 394.824 1399.58 398.583C1404.03 404.201 1407.85 410.298 1410.95 416.761C1414.13 423.396 1416.4 431.756 1412.1 437.725C1411.42 438.79 1410.39 439.587 1409.19 439.978C1405.68 440.868 1403.39 436.567 1400.87 433.96C1397.7 430.676 1392.89 429.745 1388.59 428.205C1384.29 426.664 1379.76 423.634 1379.42 419.077C1379.21 416.242 1380.71 413.606 1381.81 410.985C1383.66 406.568 1384.47 401.784 1384.18 397.003C1383.94 393.156 1382.86 389.155 1380.1 386.468C1377.33 383.78 1372.56 382.928 1369.6 385.389C1368.22 386.538 1367.11 388.375 1365.31 388.443C1362.13 388.565 1359.7 383.029 1357.14 384.919C1357.44 386.932 1357.02 388.987 1355.96 390.724C1348.34 397.353 1336.63 394.549 1326.8 396.89C1322.13 398.228 1317.66 400.182 1313.5 402.7C1311.94 403.365 1310.62 404.476 1309.7 405.892C1308.47 408.276 1309.82 411.329 1311.98 412.914C1314.28 414.32 1316.85 415.2 1319.53 415.489C1331.51 417.758 1343.66 421.27 1353.12 428.965C1362.58 436.66 1368.78 449.38 1365.79 461.2L1342.16 438.626C1343.06 448.104 1343.57 457.609 1343.69 467.14C1343.85 469.001 1343.59 470.873 1342.94 472.625C1341.26 476.345 1336.69 477.597 1332.69 478.418C1331.58 478.629 1330.53 479.074 1329.6 479.722C1328.67 480.37 1327.89 481.207 1327.31 482.179C1326.72 483.15 1326.35 484.234 1326.22 485.358C1326.09 486.483 1326.19 487.623 1326.53 488.704C1327.95 493.336 1331.5 496.948 1334.74 500.547C1337.99 504.146 1341.18 508.236 1341.6 513.063C1342.03 517.89 1338.39 523.331 1333.55 522.995C1329.89 522.741 1327.17 519.46 1325.61 516.136C1324.04 512.812 1323.11 509.109 1320.76 506.284C1313.66 497.735 1297.69 501.398 1291.32 492.284C1289.7 494.125 1288.57 496.351 1288.05 498.749C1287.53 501.148 1287.63 503.64 1288.34 505.989C1291.31 504.134 1295.36 505.857 1297.59 508.552C1299.81 511.247 1300.86 514.701 1302.61 517.728C1304.97 521.812 1308.72 525.433 1309.05 530.138C1308.97 531.917 1309 533.699 1309.14 535.475C1309.73 538.325 1312.14 540.372 1313.81 542.755C1317.7 548.299 1317.5 555.916 1315 562.206C1312.49 568.497 1307.99 573.754 1303.53 578.85C1295.75 587.751 1287.8 596.6 1278.57 603.992C1275.93 606.102 1273.12 608.176 1271.48 611.125C1269.84 614.074 1269.76 618.213 1272.28 620.456C1270.47 620.546 1267.24 621.434 1265.43 621.524C1264.8 614.287 1264.66 607.016 1265.02 599.76C1257.9 596.342 1250.24 605.496 1251.16 613.34C1252.07 621.183 1257.75 627.478 1261.79 634.264C1264.74 639.226 1266.94 645.013 1265.95 650.703C1264.96 656.393 1259.88 661.643 1254.13 661.141C1244.98 660.343 1241.15 647.205 1232.09 645.702C1231.29 645.514 1230.45 645.597 1229.7 645.938C1228.36 646.677 1228.13 648.477 1228.05 650.009C1227.68 657.531 1227.36 665.352 1230.29 672.287C1234.59 682.433 1245.69 690.954 1243.36 701.723C1230.82 695.894 1224.3 681.831 1221.34 668.322C1218.38 654.814 1217.89 640.633 1212.58 627.862C1208.55 633.027 1200.08 628.758 1196.4 623.339C1192.91 618.203 1190.76 612.261 1187.37 607.055C1183.99 601.849 1178.8 597.187 1172.59 596.901C1166.09 596.601 1160.45 601.064 1155.49 605.282C1151.41 608.75 1147.22 612.354 1144.84 617.148C1141.37 624.124 1142.27 632.348 1142.11 640.138C1141.93 648.559 1140.14 657.444 1134.4 663.609C1128.66 669.774 1118.07 671.922 1111.74 666.366C1108.43 663.465 1106.83 659.131 1105.41 654.971C1098.54 634.918 1092.81 614.489 1088.27 593.785C1087.2 598.511 1083.05 604.601 1079.09 601.818C1078.2 601.069 1077.48 600.141 1076.98 599.094C1069.58 586.561 1055.89 579.044 1042.05 574.537C1028.22 570.03 1013.66 567.927 999.978 562.974C992.31 560.197 984.987 556.549 978.152 552.102C976.409 554.662 975.392 557.646 975.207 560.737C975.022 563.828 975.677 566.912 977.103 569.661C980.138 575.035 987.006 578.144 992.885 576.266C995.923 575.295 998.488 573.186 1001.5 572.144C1004.52 571.103 1008.56 571.614 1009.88 574.518C1011.14 577.298 1009.24 580.661 1010.18 583.564C1011.62 587.984 1018.29 588.325 1020.62 592.348C1022.36 595.341 1020.93 599.315 1018.45 601.731C1015.98 604.146 1012.67 605.471 1009.65 607.152C999.837 612.607 992.861 621.919 984.288 629.164C975.714 636.409 963.618 641.699 953.401 637.052C955.837 624.719 941.146 615.665 938.443 603.388C937.554 599.347 938.015 595.054 936.745 591.117C934.906 585.415 929.848 581.495 925.698 577.174C920.665 571.877 916.744 565.625 914.166 558.788C911.589 551.95 910.407 544.666 910.69 537.364C910.914 532.29 911.846 527.134 910.69 522.188C909.534 517.243 905.44 512.456 900.366 512.68C888.777 513.192 874.178 514.054 868.098 504.175C865.928 500.649 864.984 495.485 868.121 492.784C870.334 490.878 873.601 491.058 876.508 491.344L902.619 493.912C908.726 494.513 915.327 495.009 920.568 491.816C925.808 488.624 928.079 480.149 923.227 476.393C919.681 473.648 913.329 473.797 912.298 469.434C911.44 465.799 915.462 461.676 913.29 458.639C911.732 456.461 908.23 457.065 906.107 458.698C903.985 460.33 902.445 462.718 900.07 463.954C895.904 466.122 890.925 464.058 886.443 462.656C881.96 461.253 875.951 461.134 873.776 465.298C871.345 469.954 875.933 476.055 873.52 480.721C870.329 486.89 859.524 483.378 855.044 488.684C849.902 494.773 858.542 503.852 856.808 511.63C854.595 512.726 852.134 513.23 849.668 513.091C847.201 512.953 844.813 512.177 842.736 510.839C840.693 509.45 839.065 507.533 838.025 505.292C836.985 503.051 836.571 500.57 836.829 498.112C837.258 494.613 839.082 491.042 837.86 487.735C836.872 485.061 834.187 483.47 831.693 482.091L806.319 468.07C803.963 472.44 806.941 477.858 810.666 481.14C814.391 484.422 819.056 486.895 821.503 491.215C823.051 494.207 823.398 497.678 822.473 500.918C821.548 504.158 819.422 506.923 816.527 508.648C816.164 508.899 815.752 509.068 815.318 509.143C814.883 509.219 814.438 509.2 814.012 509.087C813.607 508.849 813.254 508.533 812.974 508.156C812.694 507.779 812.492 507.35 812.381 506.894C807.904 495.437 801.182 484.141 790.436 478.156C779.689 472.171 764.248 473.401 757.2 483.483C755.527 485.878 754.403 488.607 752.945 491.139C745.198 504.59 728.59 510.96 713.074 510.544C711.556 510.627 710.046 510.273 708.724 509.521C706.216 507.789 706.329 504.114 706.713 501.091L708.342 488.26C708.669 485.684 709.143 482.836 711.182 481.227C714.057 478.96 718.204 480.391 721.864 480.338C724.638 480.208 727.304 479.229 729.502 477.533C731.7 475.836 733.323 473.505 734.152 470.855C734.891 468.179 734.886 465.352 734.138 462.679C733.39 460.005 731.926 457.586 729.904 455.683C728.226 454.108 725.974 452.128 726.861 450.004C727.214 449.416 727.692 448.913 728.261 448.53C728.83 448.147 729.476 447.893 730.153 447.786C736.729 445.877 743.677 445.376 750.143 443.123C756.609 440.87 762.879 436.26 764.411 429.586C764.88 427.541 765.094 425.064 766.931 424.05C767.852 423.661 768.842 423.458 769.843 423.455C773.348 422.956 776.54 421.163 778.79 418.429C781.04 415.695 782.184 412.217 781.999 408.681C785.097 406.516 789.439 408.109 792.437 410.412C795.435 412.715 798.081 415.758 801.729 416.75C808.527 418.601 815.096 412.582 822.141 412.554C825.104 412.542 828.171 413.59 830.958 412.585C833.784 411.567 835.471 408.754 837.639 406.676C839.808 404.598 843.613 403.331 845.616 405.569L843.91 392.939C847.345 393.806 850.924 393.929 854.41 393.299C857.895 392.669 861.206 391.3 864.119 389.285L842.08 381.839C841.313 381.647 840.605 381.269 840.02 380.737C838.417 379.012 840.009 376.323 841.312 374.362C844.428 369.67 844.952 361.942 839.826 359.606C836.328 358.012 832.312 359.926 828.954 361.798L812.869 370.767C812.358 373.824 816.097 375.557 818.414 377.616C819.815 378.862 820.807 380.503 821.26 382.324C821.712 384.144 821.603 386.058 820.947 387.815C820.291 389.573 819.119 391.09 817.585 392.169C816.051 393.248 814.226 393.838 812.351 393.861C813.41 395.238 814.146 396.835 814.504 398.535C814.862 400.235 814.834 401.994 814.42 403.682L803.597 404.46C802.383 404.704 801.121 404.458 800.087 403.775C798.93 402.747 799.087 400.945 798.818 399.421C798.171 395.741 794.568 393.162 790.89 392.5C787.213 391.839 783.45 392.687 779.809 393.524C778.263 394.08 776.565 394.041 775.046 393.414C774.175 392.848 773.513 392.013 773.161 391.035C771.565 387.164 773.057 382.614 775.621 379.304C778.185 375.994 781.695 373.574 784.848 370.818C792.386 364.203 797.925 355.612 800.838 346.016C806.796 343.519 812.964 340.128 818.922 337.631C828.107 332.981 838.408 330.985 848.665 331.869L868.842 332.254C874.815 332.368 880.95 332.514 886.474 334.792C891.998 337.069 896.851 341.995 897.233 347.957C897.348 348.632 897.289 349.325 897.063 349.972C896.837 350.618 896.45 351.196 895.939 351.652C895.159 352.078 894.275 352.277 893.388 352.227C887.817 352.423 885.441 353.811 879.871 354.006Z" stroke="white" stroke-width="2" mask="url(#path-26-inside-6_2_13)"/>
<mask id="path-27-inside-7_2_13" fill="white">
<path d="M719.051 417.24C719.839 416.494 720.406 415.545 720.69 414.498C720.974 413.45 720.964 412.345 720.661 411.302C718.743 410.562 716.656 410.372 714.636 410.754C712.615 411.135 710.742 412.073 709.226 413.462C708.03 414.671 707 416.033 706.162 417.512C703.511 421.837 701.166 427.004 702.702 431.839C702.828 432.366 703.057 432.863 703.377 433.3C703.697 433.738 704.101 434.107 704.565 434.386C705.254 434.663 705.996 434.779 706.736 434.726C709.657 434.723 712.575 434.543 715.474 434.189C717.254 433.971 719.322 433.468 720.01 431.812C720.914 429.635 718.725 427.17 719.364 424.901C719.783 423.886 720.42 422.975 721.228 422.231C721.629 421.856 721.937 421.394 722.128 420.879C722.319 420.365 722.387 419.813 722.327 419.268C722.07 418.203 720.439 417.598 719.852 418.524"/>
</mask>
<path d="M720.661 411.302L721.621 411.023L721.482 410.548L721.021 410.37L720.661 411.302ZM709.226 413.462L708.55 412.724L708.532 412.741L708.514 412.759L709.226 413.462ZM706.162 417.512L707.015 418.034L707.024 418.02L707.032 418.005L706.162 417.512ZM702.702 431.839L703.675 431.608L703.667 431.571L703.656 431.536L702.702 431.839ZM704.565 434.386L704.05 435.243L704.118 435.285L704.193 435.314L704.565 434.386ZM706.736 434.726L706.735 433.726L706.7 433.727L706.665 433.729L706.736 434.726ZM715.474 434.189L715.595 435.181L715.595 435.181L715.474 434.189ZM720.01 431.812L719.086 431.428L719.086 431.428L720.01 431.812ZM719.364 424.901L718.439 424.518L718.417 424.573L718.401 424.63L719.364 424.901ZM721.228 422.231L721.905 422.967L721.91 422.962L721.228 422.231ZM722.327 419.268L723.321 419.159L723.314 419.095L723.299 419.033L722.327 419.268ZM719.738 417.966C720.66 417.094 721.323 415.984 721.655 414.759L719.725 414.236C719.489 415.106 719.018 415.894 718.363 416.514L719.738 417.966ZM721.655 414.759C721.987 413.534 721.976 412.242 721.621 411.023L719.7 411.582C719.952 412.448 719.961 413.366 719.725 414.236L721.655 414.759ZM721.021 410.37C718.929 409.562 716.653 409.355 714.45 409.771L714.821 411.736C716.658 411.389 718.556 411.562 720.301 412.235L721.021 410.37ZM714.45 409.771C712.247 410.187 710.204 411.21 708.55 412.724L709.901 414.199C711.28 412.936 712.984 412.083 714.821 411.736L714.45 409.771ZM708.514 412.759C707.257 414.03 706.174 415.463 705.292 417.019L707.032 418.005C707.827 416.602 708.804 415.311 709.937 414.165L708.514 412.759ZM705.31 416.989C702.659 421.314 700.064 426.839 701.749 432.142L703.656 431.536C702.268 427.168 704.363 422.36 707.015 418.034L705.31 416.989ZM701.73 432.07C701.886 432.727 702.171 433.346 702.57 433.891L704.184 432.71C703.943 432.38 703.77 432.005 703.675 431.608L701.73 432.07ZM702.57 433.891C702.968 434.436 703.471 434.896 704.05 435.243L705.08 433.529C704.73 433.319 704.425 433.04 704.184 432.71L702.57 433.891ZM704.193 435.314C705.022 435.647 705.916 435.787 706.807 435.724L706.665 433.729C706.076 433.771 705.486 433.678 704.938 433.458L704.193 435.314ZM706.738 435.726C709.698 435.723 712.656 435.541 715.595 435.181L715.352 433.196C712.493 433.546 709.616 433.723 706.735 433.726L706.738 435.726ZM715.595 435.181C716.516 435.069 717.592 434.875 718.551 434.456C719.518 434.035 720.457 433.344 720.933 432.195L719.086 431.428C718.875 431.937 718.436 432.325 717.752 432.623C717.06 432.925 716.212 433.091 715.352 433.196L715.595 435.181ZM720.933 432.195C721.544 430.726 721.08 429.214 720.744 428.101C720.362 426.838 720.102 425.967 720.326 425.171L718.401 424.63C717.986 426.104 718.503 427.6 718.829 428.68C719.202 429.911 719.38 430.721 719.086 431.428L720.933 432.195ZM720.288 425.283C720.652 424.402 721.204 423.612 721.905 422.967L720.551 421.495C719.635 422.337 718.915 423.369 718.439 424.518L720.288 425.283ZM721.91 422.962C722.425 422.481 722.82 421.887 723.065 421.227L721.19 420.531C721.053 420.9 720.833 421.232 720.545 421.5L721.91 422.962ZM723.065 421.227C723.31 420.567 723.398 419.859 723.321 419.159L721.333 419.376C721.376 419.767 721.327 420.163 721.19 420.531L723.065 421.227ZM723.299 419.033C723.07 418.084 722.282 417.448 721.525 417.199C720.768 416.951 719.64 416.992 719.008 417.988L720.697 419.059C720.699 419.055 720.695 419.062 720.685 419.069C720.675 419.076 720.672 419.075 720.681 419.073C720.706 419.067 720.782 419.06 720.901 419.099C721.017 419.137 721.132 419.206 721.219 419.29C721.306 419.374 721.343 419.451 721.355 419.503L723.299 419.033Z" fill="white" mask="url(#path-27-inside-7_2_13)"/>
<path d="M726.263 397.608L726.296 397.609L726.328 397.605C728.919 397.345 731.534 397.508 734.072 398.09C736.355 398.735 737.697 399.724 738.535 400.895C739.384 402.081 739.757 403.507 740.001 405.104C740.091 405.697 740.162 406.3 740.235 406.92C740.261 407.136 740.286 407.355 740.313 407.575C740.416 408.421 740.535 409.288 740.719 410.149C741.088 411.877 741.725 413.603 743.052 415.146L743.066 415.163L743.082 415.178C744.005 416.076 744.853 417.046 745.62 418.08C746.294 419.347 746.651 420.758 746.662 422.192L746.662 422.205L746.663 422.218C746.854 425.514 746.413 428.816 745.361 431.946L745.354 431.966L745.349 431.987C744.977 433.524 744.054 434.871 742.757 435.773C741.44 436.322 739.993 436.483 738.587 436.237L738.564 436.233L738.541 436.231C737.254 436.129 735.845 435.889 734.718 435.38C733.596 434.873 732.83 434.138 732.647 433.071C732.469 432.034 732.922 431.073 733.585 429.964C733.677 429.811 733.772 429.655 733.87 429.496C734.447 428.556 735.093 427.503 735.298 426.349C735.61 424.601 734.907 423.02 734.156 421.575C734.035 421.343 733.914 421.114 733.793 420.889C733.139 419.659 732.525 418.505 732.337 417.265C732.239 416.616 732.246 415.91 732.285 415.163C732.298 414.916 732.314 414.66 732.331 414.401C732.364 413.901 732.397 413.389 732.405 412.903C732.43 411.422 732.234 409.878 730.913 408.853L730.889 408.835L730.863 408.819C729.992 408.299 729.045 407.916 728.058 407.685C726.445 407.027 725.136 405.791 724.388 404.217C723.635 402.632 723.507 400.821 724.029 399.145L724.031 399.139L724.033 399.132C724.169 398.648 724.458 398.222 724.856 397.917C725.292 397.7 725.776 397.593 726.263 397.608Z" stroke="white"/>
</g>
</svg>
